<svg width="53" height="53" viewBox="0 0 53 53" fill="none" xmlns="http://www.w3.org/2000/svg">
<path d="M9.56944 0C4.293 0 0 4.293 0 9.56944V43.4306C0 48.707 4.293 53 9.56944 53H43.4306C48.707 53 53 48.707 53 43.4306V9.56944C53 4.293 48.707 0 43.4306 0H9.56944ZM19.875 11.7778H27.9722C33.6535 11.7778 38.2778 16.4006 38.2778 22.0833C38.2778 27.7661 33.6535 32.3889 27.9722 32.3889H22.0833V40.4861C22.0833 41.7066 21.094 42.6944 19.875 42.6944C18.656 42.6944 17.6667 41.7066 17.6667 40.4861V13.9861C17.6667 12.7656 18.656 11.7778 19.875 11.7778ZM22.0833 16.1944V27.9722H27.9722C31.2199 27.9722 33.8611 25.3311 33.8611 22.0833C33.8611 18.8356 31.2199 16.1944 27.9722 16.1944H22.0833Z" fill="black"/>
</svg>
