<svg width="20" height="20" viewBox="0 0 20 20" fill="none" xmlns="http://www.w3.org/2000/svg">
<path d="M18.3334 10C18.3334 14.6017 14.6017 18.3334 10 18.3334C5.39835 18.3334 1.66669 14.6017 1.66669 10C1.66669 5.39835 5.39835 1.66669 10 1.66669C14.6017 1.66669 18.3334 5.39835 18.3334 10Z" fill="#147377"/>
<path d="M6.1004 9.37335H6.78873C7.33415 9.37335 7.60748 9.10002 7.60748 8.5496C7.60748 8.33627 7.54248 8.1621 7.41206 8.0271C7.28165 7.8921 7.0979 7.82377 6.86206 7.82377C6.66831 7.82377 6.50081 7.88252 6.35748 7.99794C6.21415 8.11335 6.14248 8.25669 6.14248 8.42919H4.68248C4.68248 8.08752 4.7754 7.7846 4.95915 7.51627C5.14456 7.24919 5.40206 7.04085 5.72915 6.89127C6.05623 6.74169 6.41748 6.66669 6.80998 6.66669C7.51165 6.66669 8.06331 6.83127 8.4654 7.16169C8.86748 7.49044 9.06748 7.94294 9.06748 8.51919C9.06748 8.79919 8.98456 9.06294 8.81665 9.31002C8.65206 9.55752 8.40956 9.75919 8.09248 9.91377C8.4279 10.0375 8.68998 10.2279 8.8804 10.48C9.07081 10.7359 9.16665 11.0484 9.16665 11.4225C9.16665 12.0021 8.94998 12.4642 8.51706 12.8125C8.08248 13.1592 7.51456 13.3334 6.80998 13.3334C6.39665 13.3334 6.01415 13.2521 5.66081 13.0909C5.30581 12.9279 5.03915 12.7034 4.85665 12.4188C4.67456 12.1304 4.58331 11.805 4.58331 11.4404H6.05123C6.05123 11.6392 6.12956 11.8117 6.28581 11.9563C6.44206 12.1029 6.63415 12.1742 6.86206 12.1742C7.11915 12.1742 7.32415 12.1009 7.47748 11.9546C7.6304 11.8079 7.70706 11.6192 7.70706 11.3913C7.70706 11.0642 7.62873 10.8329 7.46956 10.6963C7.3104 10.5596 7.0904 10.4913 6.81206 10.4913H6.10081L6.1004 9.37335Z" fill="#FCFAF7"/>
<path d="M14.0088 6.66669V7.84669H13.9438C13.3921 7.84669 12.9396 7.98169 12.5829 8.25044C12.2279 8.51919 12.01 8.89169 11.9288 9.37044C12.2625 9.03835 12.6825 8.87085 13.19 8.87085C13.7417 8.87085 14.1813 9.07585 14.5084 9.48627C14.8354 9.89669 15 10.4329 15 11.0988C15 11.5104 14.9042 11.8884 14.7134 12.2334C14.5213 12.5784 14.2542 12.8488 13.9109 13.0421C13.5675 13.2375 13.1867 13.3334 12.7688 13.3334C12.3163 13.3334 11.9125 13.2292 11.5563 13.0192C11.2 12.8109 10.9229 12.5113 10.7229 12.1225C10.5242 11.7334 10.4217 11.2859 10.4171 10.7767V10.1763C10.4171 9.50877 10.5588 8.90835 10.8404 8.37627C11.1221 7.84252 11.5242 7.42419 12.0467 7.12127C12.5709 6.81835 13.15 6.6671 13.7884 6.6671L14.0088 6.66669ZM12.6775 10.0292C12.4821 10.0292 12.3196 10.0746 12.1859 10.1659C12.0554 10.2588 11.9579 10.3709 11.8929 10.5029V10.9521C11.8929 11.7675 12.1729 12.1763 12.7313 12.1763C12.9559 12.1763 13.1429 12.0738 13.2946 11.8704C13.4442 11.6654 13.5192 11.4113 13.5192 11.1021C13.5192 10.7863 13.4425 10.5275 13.2896 10.3292C13.1346 10.1288 12.9313 10.0292 12.6775 10.0292Z" fill="#FCFAF7"/>
</svg>
