<svg width="24" height="24" viewBox="0 0 24 24" fill="none" xmlns="http://www.w3.org/2000/svg">
<path d="M7.5 2.25C4.19531 2.25 1.5 4.94531 1.5 8.25C1.5 10.4619 2.70996 12.3896 4.5 13.4297V20.25H21V5.25H17.25V4.5H15.75V5.25H12.6797C11.6396 3.45996 9.71191 2.25 7.5 2.25ZM7.5 3.75C9.99316 3.75 12 5.75684 12 8.25C12 10.7432 9.99316 12.75 7.5 12.75C5.00684 12.75 3 10.7432 3 8.25C3 5.75684 5.00684 3.75 7.5 3.75ZM6.75 5.25V8.67188L5.46094 9.96094L6.53906 11.0391L8.03906 9.53906L8.25 9.30469V5.25H6.75ZM13.2891 6.75H15.75V7.5H17.25V6.75H19.5V8.25H13.5C13.5 7.72852 13.415 7.2334 13.2891 6.75ZM13.2891 9.75H19.5V18.75H6V14.0391C6.4834 14.165 6.97852 14.25 7.5 14.25C10.2832 14.25 12.6152 12.3281 13.2891 9.75ZM13.5 12.75V14.25H15V12.75H13.5ZM16.5 12.75V14.25H18V12.75H16.5ZM7.5 15.75V17.25H9V15.75H7.5ZM10.5 15.75V17.25H12V15.75H10.5ZM13.5 15.75V17.25H15V15.75H13.5ZM16.5 15.75V17.25H18V15.75H16.5Z" fill="#FCFAF7"/>
</svg>
