<svg width="250" height="208" viewBox="0 0 250 208" fill="none" xmlns="http://www.w3.org/2000/svg">
<path d="M198.434 126.244L162.019 89.8147C159.203 86.9978 154.624 86.9978 151.808 89.8147L145.184 96.4357C143.007 98.6182 142.538 101.851 143.736 104.511L138.705 109.543L137.188 108.028C134.94 105.78 131.952 104.539 128.77 104.539C127.773 104.539 126.809 104.701 125.866 104.94C125.579 103.646 124.95 102.41 123.945 101.405L117.324 94.7786C114.508 91.9667 109.929 91.9693 107.113 94.7811L70.6932 131.211C67.8823 134.028 67.966 138.608 70.7795 141.425L77.4845 148.049V148.051C78.7529 149.457 80.6581 150.158 82.505 150.158C82.9718 150.158 83.3929 150.112 83.8521 150.023C83.9637 152.916 85.0647 155.779 87.2668 157.982L88.7737 159.499L87.2515 161.017C83.5248 164.745 83.5223 170.813 87.249 174.541C88.8549 176.147 90.8945 177.017 92.9925 177.241C92.2873 180.342 93.1143 183.725 95.5244 186.133C97.389 187.998 99.8371 188.93 102.285 188.93C103.001 188.93 103.711 188.826 104.411 188.666C104.634 190.764 105.505 192.805 107.11 194.411C108.975 196.277 111.423 197.208 113.871 197.208C114.587 197.208 115.299 197.104 116 196.944C116.223 199.043 117.093 201.086 118.699 202.692C120.564 204.557 123.012 205.489 125.46 205.489C127.844 205.489 130.222 204.588 132.066 202.816L133.596 204.347C135.46 206.212 137.908 207.143 140.356 207.143C142.805 207.143 145.25 206.212 147.115 204.347C148.305 203.156 149.071 201.717 149.502 200.202C151.202 201.492 153.219 202.174 155.253 202.174C157.701 202.174 160.149 201.243 162.014 199.378C163.351 198.04 164.186 196.398 164.564 194.678C165.812 195.241 167.149 195.551 168.493 195.551C170.941 195.551 173.389 194.619 175.254 192.754C177.06 190.95 178.055 188.546 178.055 185.991C178.055 184.608 177.74 183.281 177.187 182.057C178.905 181.679 180.543 180.842 181.878 179.507C185.605 175.776 185.602 169.709 181.878 165.983L175.394 159.497L181.878 153.01C184.08 150.807 185.201 147.945 185.313 145.054C185.772 145.143 186.236 145.189 186.703 145.189C188.552 145.189 190.402 144.486 191.807 143.077L198.429 136.454C201.25 133.639 201.25 129.061 198.434 126.244ZM80.9068 144.458L74.288 137.837C73.4508 137.002 73.4508 135.637 74.2855 134.802L110.703 98.3746C111.535 97.5371 112.9 97.5397 113.737 98.372L120.356 104.996C121.193 105.831 121.193 107.196 120.358 108.031L112.08 116.309L93.8703 134.523L87.249 141.146L83.9409 144.455C83.1088 145.295 81.7389 145.295 80.9068 144.458ZM90.8387 164.608C91.7139 163.732 92.8606 163.296 94.0098 163.296C95.1565 163.296 96.3083 163.732 97.181 164.608C98.0283 165.455 98.4951 166.582 98.4951 167.78C98.4951 168.978 98.0283 170.102 97.181 170.95C95.4305 172.701 92.5866 172.701 90.8362 170.95C89.0908 169.201 89.0908 166.359 90.8387 164.608ZM99.1141 182.545C97.3636 180.794 97.3636 177.949 99.1141 176.198L100.771 174.541L102.427 172.883C104.124 171.193 107.077 171.193 108.77 172.883C110.52 174.634 110.52 177.479 108.77 179.23L107.113 180.888L105.456 182.545C103.708 184.296 100.865 184.291 99.1141 182.545ZM110.703 190.823C108.955 189.072 108.955 186.23 110.703 184.478C111.578 183.603 112.725 183.166 113.874 183.166C115.023 183.166 116.172 183.603 117.045 184.478C118.793 186.23 118.793 189.072 117.045 190.823C115.297 192.574 112.451 192.574 110.703 190.823ZM128.633 199.104C126.883 200.852 124.042 200.857 122.291 199.104C120.541 197.353 120.541 194.508 122.291 192.757C123.166 191.881 124.313 191.445 125.46 191.445C126.609 191.445 127.758 191.881 128.631 192.757C130.381 194.508 130.381 197.353 128.633 199.104ZM178.293 175.921C176.545 177.67 173.701 177.675 171.948 175.921L163.673 167.64L152.085 156.048L148.495 159.639L171.669 182.821C172.517 183.669 172.983 184.796 172.983 185.991C172.983 187.191 172.517 188.316 171.669 189.163C169.919 190.914 167.075 190.914 165.325 189.163L162.016 185.854L157.049 180.885L142.153 165.983L138.563 169.574L153.46 184.476L158.427 189.445C160.175 191.193 160.175 194.038 158.427 195.789C156.676 197.54 153.832 197.54 152.082 195.789L147.115 190.82L132.218 175.919L128.628 179.51L143.525 194.411C145.275 196.162 145.275 199.007 143.525 200.758C141.772 202.504 138.931 202.504 137.183 200.758L134.686 198.261C135.478 195.104 134.676 191.627 132.216 189.163C129.805 186.752 126.426 185.925 123.329 186.63C123.106 184.532 122.235 182.491 120.63 180.885C119.024 179.279 116.981 178.408 114.883 178.185C115.589 175.084 114.762 171.701 112.352 169.292C109.944 166.884 106.565 166.054 103.467 166.76C103.237 164.593 102.328 162.575 100.766 161.014C99.0075 159.256 96.7294 158.357 94.4208 158.258L94.0048 157.842L94.1443 157.702L90.8336 154.391C88.1775 151.734 88.1724 147.412 90.821 144.75L123.945 111.617L123.95 111.612C126.528 109.038 131.016 109.043 133.596 111.617L135.113 113.132L125.318 122.93L120.353 127.899C118.105 130.145 116.865 133.134 116.865 136.317C116.865 139.497 118.103 142.489 120.353 144.737C124.993 149.379 132.543 149.379 137.183 144.737L145.319 136.596L178.293 169.577C180.041 171.323 180.041 174.17 178.293 175.921ZM178.293 149.424L171.809 155.911L145.324 129.417L133.598 141.149C130.939 143.808 126.609 143.813 123.945 141.149C122.656 139.857 121.946 138.144 121.946 136.319C121.946 134.497 122.656 132.782 123.945 131.492L133.877 121.557L146.98 108.45L178.306 139.786C180.952 142.445 180.949 146.767 178.293 149.424ZM194.846 132.868L188.225 139.491C187.388 140.329 186.028 140.329 185.191 139.491L181.893 136.192C181.891 136.187 181.888 136.185 181.883 136.18L176.916 131.211L158.708 112.995L156.291 110.576L148.779 103.062C147.942 102.227 147.942 100.862 148.776 100.027L155.398 93.4056C155.816 92.9869 156.364 92.7788 156.915 92.7788C157.465 92.7788 158.013 92.9869 158.432 93.4056L194.849 129.835C195.681 130.67 195.681 132.03 194.846 132.868Z" fill="#FCFAF7"/>
<g clip-path="url(#clip0_1_4892)">
<path d="M64.7283 125.406C64.0026 124.671 47.3292 107.352 69.3974 80.7769L80.5631 90.4021L82.9871 51.9725L45.3386 60.0373L56.521 69.677C48.988 78.8311 45.6286 88.4256 46.5191 98.2195C48.1001 115.479 62.2343 127.027 62.8394 127.512L64.7283 125.406Z" fill="#FCFAF7"/>
</g>
<g clip-path="url(#clip1_1_4892)">
<path d="M204.081 125.406C204.807 124.671 221.48 107.352 199.412 80.7769L188.246 90.4021L185.822 51.9725L223.471 60.0373L212.288 69.677C219.821 78.8311 223.181 88.4256 222.29 98.2195C220.709 115.479 206.575 127.027 205.97 127.512L204.081 125.406Z" fill="#FCFAF7"/>
</g>
<path d="M109.656 0C107.633 0 105.74 0.930675 104.617 2.48447L88.2462 25.1063V44.6334C88.2462 47.7158 90.9564 50.2125 94.3025 50.2125H97.4844C98.2335 54.9141 102.63 58.5813 107.929 58.5813C113.228 58.5813 117.625 54.9141 118.374 50.2125H136.696V5.57917C136.696 2.49668 133.986 0 130.64 0H109.656ZM112.471 11.1583C114.143 11.1583 115.499 12.4081 115.499 13.9479V33.475C115.499 35.0149 114.143 36.2646 112.471 36.2646C110.8 36.2646 109.443 35.0149 109.443 33.475V13.9479C109.443 12.4081 110.8 11.1583 112.471 11.1583ZM124.584 11.1583C126.255 11.1583 127.612 12.4081 127.612 13.9479V33.475C127.612 35.0149 126.255 36.2646 124.584 36.2646C122.912 36.2646 121.556 35.0149 121.556 33.475V13.9479C121.556 12.4081 122.912 11.1583 124.584 11.1583ZM148.809 11.1583C145.463 11.1583 142.753 13.655 142.753 16.7375V50.2125H148.963C149.712 54.9141 154.108 58.5813 159.407 58.5813C164.706 58.5813 169.103 54.9141 169.852 50.2125H176.062C176.463 50.2177 176.862 50.1495 177.234 50.0116C177.606 49.8738 177.945 49.6691 178.231 49.4096C178.517 49.15 178.744 48.8407 178.899 48.4997C179.054 48.1586 179.133 47.7926 179.133 47.4229C179.133 47.0532 179.054 46.6872 178.899 46.3462C178.744 46.0052 178.517 45.6959 178.231 45.4363C177.945 45.1768 177.606 44.9721 177.234 44.8343C176.862 44.6964 176.463 44.6281 176.062 44.6334V30.6854H157.893V19.5271C157.893 17.9872 159.25 16.7375 160.921 16.7375H169.574L168.551 14.5418C167.597 12.4915 165.408 11.1583 162.986 11.1583H148.809ZM100.359 22.3167C102.03 22.3167 103.387 23.5664 103.387 25.1063V33.475C103.387 35.0149 102.03 36.2646 100.359 36.2646C98.6872 36.2646 97.3306 35.0149 97.3306 33.475V25.1063C97.3306 23.5664 98.6872 22.3167 100.359 22.3167ZM107.929 44.6334C110.474 44.6334 112.471 46.4737 112.471 48.8177C112.471 51.1617 110.474 53.0021 107.929 53.0021C105.385 53.0021 103.387 51.1617 103.387 48.8177C103.387 46.4737 105.385 44.6334 107.929 44.6334ZM159.407 44.6334C161.952 44.6334 163.95 46.4737 163.95 48.8177C163.95 51.1617 161.952 53.0021 159.407 53.0021C156.863 53.0021 154.865 51.1617 154.865 48.8177C154.865 46.4737 156.863 44.6334 159.407 44.6334Z" fill="#FCFAF7"/>
<defs>
<clipPath id="clip0_1_4892">
<rect width="70.8572" height="70.8572" fill="white" transform="matrix(-0.799419 0.60078 0.60078 0.799419 75.4534 37.9794)"/>
</clipPath>
<clipPath id="clip1_1_4892">
<rect width="70.8572" height="70.8572" fill="white" transform="translate(193.355 37.9794) rotate(36.9256)"/>
</clipPath>
</defs>
</svg>
