<svg width="20" height="20" viewBox="0 0 20 20" fill="none" xmlns="http://www.w3.org/2000/svg">
<path d="M18.3333 10C18.3333 14.6021 14.602 18.3333 9.99996 18.3333C5.39788 18.3333 1.66663 14.6021 1.66663 10C1.66663 5.39792 5.39788 1.66667 9.99996 1.66667C14.602 1.66667 18.3333 5.39792 18.3333 10Z" fill="#147377"/>
<path d="M7.6842 12.0433V13.4313C8.16754 13.6438 8.76379 13.75 9.47295 13.75C10.3471 13.75 11.0392 13.5142 11.55 13.0433C12.0605 12.5721 12.3159 11.9646 12.3159 11.2208C12.3159 10.5492 12.1017 10.0146 11.6734 9.61708C11.2446 9.21958 10.6521 9.02083 9.89462 9.02083C9.70254 9.02083 9.47462 9.03125 9.21087 9.05167L9.31379 7.57625H11.9767V6.25H8.07504L7.79754 10.3621C8.2942 10.3037 8.73295 10.2746 9.11337 10.2746C10.145 10.2746 10.6609 10.6396 10.6609 11.3696C10.6609 11.7192 10.54 11.9958 10.2984 12.2C10.0567 12.4038 9.7217 12.5058 9.29337 12.5058C8.7242 12.5058 8.18795 12.3517 7.6842 12.0433Z" fill="#FCFAF7"/>
</svg>
