<svg width="28" height="28" viewBox="0 0 28 28" fill="none" xmlns="http://www.w3.org/2000/svg">
<path d="M5.15194 2.32878L1.17114 2.34929L1.18254 4.68262L3.5979 4.67123L7.44198 13.8929L6.04517 16.126C5.06708 17.6879 6.25638 19.8333 8.09823 19.8333H22.1666V17.5H8.09823C7.96841 17.5 7.95344 17.4744 8.02303 17.3633L9.39478 15.1667H18.1083C18.9553 15.1667 19.737 14.7067 20.1477 13.9658L24.3495 6.39844C24.7824 5.62144 24.22 4.66667 23.331 4.66667H6.12492L5.15194 2.32878ZM8.16658 21C7.54775 21 6.95425 21.2458 6.51667 21.6834C6.07908 22.121 5.83325 22.7145 5.83325 23.3333C5.83325 23.9522 6.07908 24.5457 6.51667 24.9833C6.95425 25.4208 7.54775 25.6667 8.16658 25.6667C8.78542 25.6667 9.37892 25.4208 9.8165 24.9833C10.2541 24.5457 10.4999 23.9522 10.4999 23.3333C10.4999 22.7145 10.2541 22.121 9.8165 21.6834C9.37892 21.2458 8.78542 21 8.16658 21ZM19.8333 21C19.2144 21 18.6209 21.2458 18.1833 21.6834C17.7458 22.121 17.4999 22.7145 17.4999 23.3333C17.4999 23.9522 17.7458 24.5457 18.1833 24.9833C18.6209 25.4208 19.2144 25.6667 19.8333 25.6667C20.4521 25.6667 21.0456 25.4208 21.4832 24.9833C21.9208 24.5457 22.1666 23.9522 22.1666 23.3333C22.1666 22.7145 21.9208 22.121 21.4832 21.6834C21.0456 21.2458 20.4521 21 19.8333 21Z" fill="black"/>
</svg>
