<svg width="32" height="34" viewBox="0 0 32 34" fill="none" xmlns="http://www.w3.org/2000/svg">
<path d="M5.15194 8.32886L1.17114 8.34937L1.18254 10.6827L3.5979 10.6713L7.44198 19.893L6.04517 22.1261C5.06708 23.6879 6.25638 25.8334 8.09823 25.8334H22.1666V23.5001H8.09823C7.96841 23.5001 7.95344 23.4745 8.02303 23.3634L9.39478 21.1667H18.1083C18.9553 21.1667 19.737 20.7067 20.1477 19.9659L24.3495 12.3985C24.7824 11.6215 24.22 10.6667 23.331 10.6667H6.12492L5.15194 8.32886ZM8.16658 27.0001C7.54775 27.0001 6.95425 27.2459 6.51667 27.6835C6.07908 28.1211 5.83325 28.7146 5.83325 29.3334C5.83325 29.9523 6.07908 30.5457 6.51667 30.9833C6.95425 31.4209 7.54775 31.6667 8.16658 31.6667C8.78542 31.6667 9.37892 31.4209 9.8165 30.9833C10.2541 30.5457 10.4999 29.9523 10.4999 29.3334C10.4999 28.7146 10.2541 28.1211 9.8165 27.6835C9.37892 27.2459 8.78542 27.0001 8.16658 27.0001ZM19.8333 27.0001C19.2144 27.0001 18.6209 27.2459 18.1833 27.6835C17.7458 28.1211 17.4999 28.7146 17.4999 29.3334C17.4999 29.9523 17.7458 30.5457 18.1833 30.9833C18.6209 31.4209 19.2144 31.6667 19.8333 31.6667C20.4521 31.6667 21.0456 31.4209 21.4832 30.9833C21.9208 30.5457 22.1666 29.9523 22.1666 29.3334C22.1666 28.7146 21.9208 28.1211 21.4832 27.6835C21.0456 27.2459 20.4521 27.0001 19.8333 27.0001Z" fill="black"/>
<path d="M29.4604 10.0001C29.4604 14.6022 25.7291 18.3334 21.127 18.3334C16.525 18.3334 12.7937 14.6022 12.7937 10.0001C12.7937 5.398 16.525 1.66675 21.127 1.66675C25.7291 1.66675 29.4604 5.398 29.4604 10.0001Z" fill="#147377"/>
<path d="M18.811 12.0433V13.4313C19.2944 13.6438 19.8906 13.75 20.5998 13.75C21.474 13.75 22.166 13.5142 22.6769 13.0433C23.1873 12.5721 23.4427 11.9646 23.4427 11.2208C23.4427 10.5492 23.2285 10.0146 22.8002 9.61708C22.3715 9.21958 21.779 9.02083 21.0215 9.02083C20.8294 9.02083 20.6015 9.03125 20.3377 9.05167L20.4406 7.57625H23.1035V6.25H19.2019L18.9244 10.3621C19.421 10.3037 19.8598 10.2746 20.2402 10.2746C21.2719 10.2746 21.7877 10.6396 21.7877 11.3696C21.7877 11.7192 21.6669 11.9958 21.4252 12.2C21.1835 12.4038 20.8485 12.5058 20.4202 12.5058C19.851 12.5058 19.3148 12.3517 18.811 12.0433Z" fill="#FCFAF7"/>
</svg>
