<svg width="15" height="15" viewBox="0 0 15 15" fill="none" xmlns="http://www.w3.org/2000/svg">
<path d="M0.9375 2.75909V9.05329L0.219727 10.1311V10.1454C0.0897216 10.3394 0 10.5711 0 10.8065C0 11.4423 0.523682 11.9561 1.17188 11.9561H14.0625C14.3079 11.9561 14.5587 11.8717 14.7363 11.6974C14.9139 11.5232 15 11.2771 15 11.0364V6.43789C15 6.19719 14.9139 5.9511 14.7363 5.77686C14.5587 5.60262 14.3079 5.51819 14.0625 5.51819H11.25V2.75909H0.9375ZM1.875 3.67879H10.3125V5.51819H7.5C7.25464 5.51819 7.00378 5.60262 6.82617 5.77686C6.64856 5.9511 6.5625 6.19719 6.5625 6.43789V8.73714H1.875V3.67879ZM7.5 6.43789H14.0625V11.0364H7.5V6.43789ZM1.66992 9.65684H6.5625V11.0364H1.17188C1.07117 11.0364 0.9375 10.9053 0.9375 10.8065C0.9375 10.7705 0.942993 10.7274 0.996094 10.6484L1.66992 9.65684ZM9.84375 9.65684V10.5765H11.7188V9.65684H9.84375Z" fill="#FCFAF7"/>
</svg>
