<svg width="10" height="10" viewBox="0 0 10 10" fill="none" xmlns="http://www.w3.org/2000/svg">
<path d="M5.00004 9.16659C4.42365 9.16659 3.88199 9.05714 3.37504 8.83825C2.8681 8.61964 2.42712 8.32284 2.05212 7.94784C1.67712 7.57284 1.38032 7.13186 1.16171 6.62492C0.942819 6.11797 0.833374 5.57631 0.833374 4.99992C0.833374 4.42353 0.942819 3.88186 1.16171 3.37492C1.38032 2.86797 1.67712 2.427 2.05212 2.052C2.42712 1.677 2.8681 1.38006 3.37504 1.16117C3.88199 0.942557 4.42365 0.833252 5.00004 0.833252C5.57643 0.833252 6.1181 0.942557 6.62504 1.16117C7.13199 1.38006 7.57296 1.677 7.94796 2.052C8.32296 2.427 8.61976 2.86797 8.83837 3.37492C9.05726 3.88186 9.16671 4.42353 9.16671 4.99992C9.16671 5.57631 9.05726 6.11797 8.83837 6.62492C8.61976 7.13186 8.32296 7.57284 7.94796 7.94784C7.57296 8.32284 7.13199 8.61964 6.62504 8.83825C6.1181 9.05714 5.57643 9.16659 5.00004 9.16659Z" fill="#147377"/>
</svg>
