<svg width="24" height="24" viewBox="0 0 24 24" fill="none" xmlns="http://www.w3.org/2000/svg">
<g clip-path="url(#clip0_1_3567)">
<path d="M3 5C2.448 5 2 5.448 2 6V16C2 16.552 2.448 17 3 17H13V15H4.91211C4.83749 14.7897 4.7169 14.5987 4.55911 14.4409C4.40132 14.2831 4.21031 14.1625 4 14.0879V7.91211C4.21031 7.83749 4.40132 7.7169 4.55911 7.55911C4.7169 7.40132 4.83749 7.21031 4.91211 7H19.0879C19.1625 7.21031 19.2831 7.40132 19.4409 7.55911C19.5987 7.7169 19.7897 7.83749 20 7.91211V10H22V6C22 5.448 21.552 5 21 5H3ZM11.9746 8C11.7867 8.00149 11.5953 8.02084 11.4004 8.05859C10.2234 8.28659 9.26578 9.25555 9.05078 10.4355C8.70478 12.3405 10.159 14 12 14C12.353 14 12.686 13.9284 13 13.8164V11.8164C13 10.8134 13.8134 10 14.8164 10C14.4008 8.83012 13.29 7.98957 11.9746 8ZM7 10C6.448 10 6 10.447 6 11C6 11.553 6.448 12 7 12C7.552 12 8 11.553 8 11C8 10.447 7.552 10 7 10ZM15 12V14H16V15.9141L18.0859 18L16 20.0859V22H15V24H24V22H23V20.0859L20.9141 18L23 15.9141V14H24V12H15ZM18 14H21V15.0859L19.5 16.5859L18 15.0859V14ZM19.5 19.4141L21 20.9141V22H18V20.9141L19.5 19.4141Z" fill="#FCFAF7"/>
</g>
<defs>
<clipPath id="clip0_1_3567">
<rect width="24" height="24" fill="white"/>
</clipPath>
</defs>
</svg>
