<svg width="44" height="44" viewBox="0 0 44 44" fill="none" xmlns="http://www.w3.org/2000/svg">
<path d="M13.8705 6.08472V13.4181H20.5622L21.1179 15.641C21.181 15.8947 22.6705 21.9115 22.6705 26.618C22.6705 29.5734 21.2997 32.6897 18.3737 34.2693C20.0603 34.9161 21.2039 36.5356 21.2039 38.3514H27.8869C27.3824 37.4846 27.0705 36.4916 27.0705 35.418V16.3514H32.9372V6.08472H13.8705ZM6.5372 16.3514C6.5372 16.3514 5.07054 22.218 5.07054 26.618C5.07054 30.6264 8.00387 32.3902 10.9372 32.3902V35.8821L7.62861 36.9621C7.00528 37.1307 6.5372 37.6738 6.5372 38.3514H12.4039H18.2705C18.2705 37.6738 17.8025 37.1307 17.1791 36.9621L13.8705 35.8821V32.3873C16.8039 32.3888 19.7372 30.6264 19.7372 26.618C19.7372 22.218 18.2705 16.3514 18.2705 16.3514H6.5372ZM30.0039 19.2847V35.418C30.0039 37.0387 31.3165 38.3514 32.9372 38.3514H35.8705C37.4912 38.3514 38.8039 37.0387 38.8039 35.418V19.2847H30.0039Z" fill="black"/>
</svg>
