<svg width="15" height="15" viewBox="0 0 15 15" fill="none" xmlns="http://www.w3.org/2000/svg">
<path d="M5 1.96204V4.41457H7.28125L7.4707 5.15799C7.4922 5.24285 8 7.25509 8 8.82912C8 9.8175 7.53266 10.8597 6.53516 11.388C7.11016 11.6043 7.5 12.1459 7.5 12.7532H9.77832C9.60632 12.4633 9.5 12.1312 9.5 11.7722V5.39558H11.5V1.96204H5ZM2.5 5.39558C2.5 5.39558 2 7.35761 2 8.82912C2 10.1697 3 10.7595 4 10.7595V11.9274L2.87207 12.2885C2.65957 12.3449 2.5 12.5266 2.5 12.7532H4.5H6.5C6.5 12.5266 6.34043 12.3449 6.12793 12.2885L5 11.9274V10.7586C6 10.7591 7 10.1697 7 8.82912C7 7.35761 6.5 5.39558 6.5 5.39558H2.5ZM10.5 6.37659V11.7722C10.5 12.3142 10.9475 12.7532 11.5 12.7532H12.5C13.0525 12.7532 13.5 12.3142 13.5 11.7722V6.37659H10.5Z" fill="#FCFAF7"/>
</svg>
