<svg width="24" height="24" viewBox="0 0 24 24" fill="none" xmlns="http://www.w3.org/2000/svg">
<path d="M12.0007 0.504395C11.8963 0.504395 11.7923 0.537507 11.7035 0.604707L0.66348 9.22127C0.45708 9.38447 0.418718 9.68601 0.581918 9.89721C0.745118 10.1036 1.04666 10.142 1.25786 9.97877L1.92067 9.46127V22.08C1.92067 22.344 2.13667 22.56 2.40067 22.56H9.12067V13.92H14.8807V22.56H21.6007C21.8647 22.56 22.0807 22.344 22.0807 22.08V9.46127L22.7435 9.97877C22.8347 10.046 22.9351 10.08 23.0407 10.08C23.1847 10.08 23.3234 10.0172 23.4194 9.89721C23.5826 9.68601 23.5443 9.38447 23.3379 9.22127L12.2979 0.604707C12.2091 0.537507 12.1051 0.504395 12.0007 0.504395ZM16.8007 2.40002V2.90439L19.6807 5.15064V2.40002H16.8007Z" fill="#F1BC00"/>
</svg>
