<svg width="20" height="20" viewBox="0 0 20 20" fill="none" xmlns="http://www.w3.org/2000/svg">
<g clip-path="url(#clip0_1_3408)">
<g clip-path="url(#clip1_1_3408)">
<path d="M0.437199 0.416748V2.08341H19.2214V0.416748H0.437199ZM0.437199 2.91675C0.437199 2.91675 -0.416626 8.18841 -0.416626 8.33341C-0.416626 9.02341 0.157145 9.58341 0.864112 9.58341C1.57108 9.58341 2.14485 9.02341 2.14485 8.33341V4.58341H4.06596V8.33341C4.06596 9.02341 4.63973 9.58341 5.34669 9.58341C6.05366 9.58341 6.62743 9.02341 6.62743 8.33341V4.58341H8.54854V8.33341C8.54854 9.02341 9.12231 9.58341 9.82928 9.58341C10.5362 9.58341 11.11 9.02341 11.11 8.33341V4.58341H13.0311V8.33341C13.0311 9.02341 13.6049 9.58341 14.3119 9.58341C15.0188 9.58341 15.5926 9.02341 15.5926 8.33341L15.6009 4.58341H17.5137V8.33341C17.5137 9.02341 18.0875 9.58341 18.7944 9.58341C19.5014 9.58341 20.0752 9.02341 20.0752 8.33341C20.0752 8.18841 19.2214 2.91675 19.2214 2.91675H0.437199ZM3.1054 9.16838C2.66824 9.93754 1.82723 10.4591 0.864112 10.4591C0.718108 10.4591 0.576373 10.4401 0.437199 10.4167V20.4167H11.5369V12.0834H16.6599V20.4167H19.2214V10.4184C19.0822 10.4417 18.9404 10.4591 18.7944 10.4591C17.8313 10.4591 16.9912 9.93834 16.5531 9.17C16.116 9.93834 15.275 10.4591 14.3119 10.4591C13.3487 10.4591 12.5077 9.93754 12.0706 9.16838C11.6334 9.93754 10.7924 10.4591 9.82928 10.4591C8.86616 10.4591 8.02514 9.93754 7.58799 9.16838C7.15083 9.93754 6.30981 10.4591 5.34669 10.4591C4.38358 10.4591 3.54256 9.93754 3.1054 9.16838ZM2.99867 12.0834H8.97545V17.0834H2.99867V12.0834Z" fill="#147377"/>
</g>
</g>
<defs>
<clipPath id="clip0_1_3408">
<rect width="20" height="20" fill="white"/>
</clipPath>
<clipPath id="clip1_1_3408">
<rect width="20.4918" height="20" fill="white" transform="translate(-0.416626 0.416748)"/>
</clipPath>
</defs>
</svg>
