<svg width="30" height="30" viewBox="0 0 30 30" fill="none" xmlns="http://www.w3.org/2000/svg">
<path d="M14.1125 19.6375C14.2314 19.7513 14.3716 19.8405 14.525 19.9C14.8293 20.025 15.1707 20.025 15.475 19.9C15.6284 19.8405 15.7686 19.7513 15.8875 19.6375L19.6375 15.8875C19.8729 15.6521 20.0051 15.3329 20.0051 15C20.0051 14.6671 19.8729 14.3479 19.6375 14.1125C19.4021 13.8771 19.0829 13.7449 18.75 13.7449C18.4171 13.7449 18.0979 13.8771 17.8625 14.1125L16.25 15.7375V11.25C16.25 10.9185 16.1183 10.6005 15.8839 10.3661C15.6495 10.1317 15.3315 10 15 10C14.6685 10 14.3505 10.1317 14.1161 10.3661C13.8817 10.6005 13.75 10.9185 13.75 11.25V15.7375L12.1375 14.1125C12.0213 13.9953 11.883 13.9024 11.7307 13.8389C11.5784 13.7754 11.415 13.7428 11.25 13.7428C11.085 13.7428 10.9216 13.7754 10.7693 13.8389C10.617 13.9024 10.4787 13.9953 10.3625 14.1125C10.2453 14.2287 10.1523 14.367 10.0889 14.5193C10.0254 14.6716 9.99275 14.835 9.99275 15C9.99275 15.165 10.0254 15.3284 10.0889 15.4807C10.1523 15.6331 10.2453 15.7713 10.3625 15.8875L14.1125 19.6375ZM15 27.5C17.4723 27.5 19.889 26.7669 21.9446 25.3934C24.0002 24.0199 25.6024 22.0676 26.5485 19.7836C27.4946 17.4995 27.7421 14.9861 27.2598 12.5614C26.7775 10.1366 25.587 7.90933 23.8388 6.16117C22.0907 4.41301 19.8634 3.2225 17.4386 2.74019C15.0139 2.25787 12.5005 2.50542 10.2165 3.45151C7.93238 4.39761 5.98015 5.99976 4.60663 8.05538C3.23311 10.111 2.5 12.5277 2.5 15C2.5 18.3152 3.81696 21.4946 6.16117 23.8388C7.3219 24.9996 8.69989 25.9203 10.2165 26.5485C11.733 27.1767 13.3585 27.5 15 27.5ZM15 5.00001C16.9778 5.00001 18.9112 5.5865 20.5557 6.68531C22.2002 7.78412 23.4819 9.34591 24.2388 11.1732C24.9957 13.0004 25.1937 15.0111 24.8079 16.9509C24.422 18.8907 23.4696 20.6725 22.0711 22.0711C20.6725 23.4696 18.8907 24.422 16.9509 24.8079C15.0111 25.1937 13.0004 24.9957 11.1732 24.2388C9.3459 23.4819 7.78412 22.2002 6.6853 20.5557C5.58649 18.9112 5 16.9778 5 15C5 12.3478 6.05357 9.8043 7.92893 7.92894C9.8043 6.05357 12.3478 5.00001 15 5.00001Z" fill="#147377"/>
</svg>
