<svg width="25" height="25" viewBox="0 0 25 25" fill="none" xmlns="http://www.w3.org/2000/svg">
<path d="M18.6059 2.11937C17.7842 2.12654 16.9991 2.4598 16.4232 3.04586C15.8473 3.63191 15.5278 4.42274 15.5349 5.24437C15.5372 5.43866 15.5578 5.6323 15.5964 5.82273L8.28625 10.1728C7.72247 9.70358 7.01051 9.44962 6.27706 9.45611C5.45542 9.46328 4.67029 9.79655 4.09438 10.3826C3.51847 10.9687 3.19895 11.7595 3.20612 12.5811C3.21329 13.4027 3.54656 14.1879 4.13261 14.7638C4.71866 15.3397 5.50949 15.6592 6.33113 15.652C7.06344 15.6442 7.7693 15.3772 8.32346 14.8984L15.7125 19.1222C15.6772 19.3133 15.66 19.5073 15.6611 19.7016C15.6683 20.5232 16.0015 21.3083 16.5876 21.8842C17.1736 22.4602 17.9645 22.7797 18.7861 22.7725C19.6077 22.7653 20.3929 22.4321 20.9688 21.846C21.5447 21.26 21.8642 20.4691 21.857 19.6475C21.8499 18.8259 21.5166 18.0407 20.9305 17.4648C20.3445 16.8889 19.5537 16.5694 18.732 16.5766C17.999 16.5839 17.2924 16.851 16.7377 17.3302L9.35064 13.1064C9.38591 12.9153 9.40313 12.7213 9.40206 12.527C9.39974 12.3328 9.37914 12.1391 9.34054 11.9487L16.6507 7.59863C17.2145 8.06783 17.9265 8.32179 18.6599 8.31531C19.4816 8.30814 20.2667 7.97487 20.8426 7.38881C21.4185 6.80276 21.738 6.01193 21.7309 5.1903C21.7237 4.36867 21.3904 3.58353 20.8044 3.00762C20.2183 2.43171 19.4275 2.11219 18.6059 2.11937Z" fill="#FCFAF7"/>
</svg>
