<svg width="57" height="57" viewBox="0 0 57 57" fill="none" xmlns="http://www.w3.org/2000/svg">
<path d="M0 28.5C0 34.1368 1.6715 39.647 4.80312 44.3337C7.93474 49.0206 12.3858 52.6735 17.5935 54.8306C22.8012 56.9877 28.5316 57.5521 34.0601 56.4524C39.5885 55.3527 44.6667 52.6383 48.6525 48.6525C52.6383 44.6667 55.3527 39.5885 56.4524 34.0601C57.5521 28.5316 56.9877 22.8012 54.8306 17.5935C52.6735 12.3858 49.0206 7.93474 44.3337 4.80312C39.647 1.6715 34.1368 0 28.5 0C20.9413 0 13.6922 3.00267 8.34746 8.34746C3.00267 13.6922 0 20.9413 0 28.5ZM12.2143 26.4643H36.9482L25.5889 15.05L28.5 12.2143L44.7857 28.5L28.5 44.7857L25.5889 41.8807L36.9482 30.5357H12.2143V26.4643Z" fill="#3AB190"/>
</svg>
