<svg width="32" height="34" viewBox="0 0 32 34" fill="none" xmlns="http://www.w3.org/2000/svg">
<path d="M12.1334 8.80005C6.46337 8.80005 1.8667 12.9786 1.8667 18.1334C1.8667 20.7809 3.08762 23.162 5.03675 24.8581C4.75718 25.7737 4.17399 26.6843 3.10264 27.4959C3.10203 27.4965 3.10142 27.4971 3.10081 27.4977C3.01245 27.5313 2.93637 27.591 2.88266 27.6688C2.82895 27.7466 2.80014 27.8388 2.80003 27.9334C2.80003 28.0571 2.8492 28.1758 2.93672 28.2634C3.02423 28.3509 3.14293 28.4 3.2667 28.4C3.29859 28.3997 3.33035 28.396 3.36149 28.3891C5.17222 28.3838 6.71718 27.6104 7.94613 26.6409C8.52932 26.8781 9.13808 27.0737 9.77269 27.2097C9.48896 26.407 9.33337 25.5524 9.33337 24.6667C9.33337 20.0346 13.5203 16.2667 18.6667 16.2667C19.9566 16.2667 21.1862 16.5037 22.3052 16.9321C21.6556 12.3457 17.3544 8.80005 12.1334 8.80005ZM18.6667 18.1334C16.6864 18.1334 14.7872 18.8217 13.387 20.047C11.9867 21.2722 11.2 22.934 11.2 24.6667C11.2 26.3995 11.9867 28.0612 13.387 29.2865C14.7872 30.5117 16.6864 31.2 18.6667 31.2C19.6214 31.1987 20.5669 31.0372 21.4521 30.7243C22.5967 31.5238 23.9819 32.1169 25.5683 32.1224C25.6006 32.1296 25.6336 32.1332 25.6667 32.1334C25.7905 32.1334 25.9092 32.0842 25.9967 31.9967C26.0842 31.9092 26.1334 31.7905 26.1334 31.6667C26.1332 31.5712 26.1038 31.4781 26.049 31.3998C25.9942 31.3216 25.9168 31.262 25.8271 31.2292C24.9729 30.5807 24.4255 29.8669 24.0972 29.1402C25.4021 27.9302 26.1303 26.3303 26.1334 24.6667C26.1334 22.934 25.3467 21.2722 23.9464 20.047C22.5462 18.8217 20.647 18.1334 18.6667 18.1334Z" fill="black"/>
<path d="M30.3334 10.0001C30.3334 14.6017 26.6017 18.3334 22.0001 18.3334C17.3984 18.3334 13.6667 14.6017 13.6667 10.0001C13.6667 5.39841 17.3984 1.66675 22.0001 1.66675C26.6017 1.66675 30.3334 5.39841 30.3334 10.0001Z" fill="#147377"/>
<path d="M18.1003 9.37341H18.7887C19.3341 9.37341 19.6074 9.10008 19.6074 8.54966C19.6074 8.33633 19.5424 8.16216 19.412 8.02716C19.2816 7.89216 19.0978 7.82383 18.862 7.82383C18.6683 7.82383 18.5008 7.88258 18.3574 7.998C18.2141 8.11341 18.1424 8.25675 18.1424 8.42925H16.6824C16.6824 8.08758 16.7753 7.78466 16.9591 7.51633C17.1445 7.24925 17.402 7.04091 17.7291 6.89133C18.0562 6.74175 18.4174 6.66675 18.8099 6.66675C19.5116 6.66675 20.0633 6.83133 20.4653 7.16175C20.8674 7.4905 21.0674 7.943 21.0674 8.51925C21.0674 8.79925 20.9845 9.063 20.8166 9.31008C20.652 9.55758 20.4095 9.75925 20.0924 9.91383C20.4278 10.0376 20.6899 10.228 20.8803 10.4801C21.0708 10.7359 21.1666 11.0484 21.1666 11.4226C21.1666 12.0022 20.9499 12.4642 20.517 12.8126C20.0824 13.1592 19.5145 13.3334 18.8099 13.3334C18.3966 13.3334 18.0141 13.2522 17.6608 13.0909C17.3058 12.928 17.0391 12.7034 16.8566 12.4188C16.6745 12.1305 16.5833 11.8051 16.5833 11.4405H18.0512C18.0512 11.6392 18.1295 11.8117 18.2858 11.9563C18.442 12.103 18.6341 12.1742 18.862 12.1742C19.1191 12.1742 19.3241 12.1009 19.4774 11.9547C19.6303 11.808 19.707 11.6192 19.707 11.3913C19.707 11.0642 19.6287 10.833 19.4695 10.6963C19.3103 10.5597 19.0903 10.4913 18.812 10.4913H18.1008L18.1003 9.37341Z" fill="white"/>
<path d="M26.0087 6.66675V7.84675H25.9437C25.392 7.84675 24.9395 7.98175 24.5828 8.2505C24.2278 8.51925 24.0099 8.89175 23.9287 9.3705C24.2624 9.03841 24.6824 8.87091 25.1899 8.87091C25.7416 8.87091 26.1812 9.07591 26.5082 9.48633C26.8353 9.89675 26.9999 10.433 26.9999 11.0988C26.9999 11.5105 26.9041 11.8884 26.7132 12.2334C26.5212 12.5784 26.2541 12.8488 25.9107 13.0422C25.5674 13.2376 25.1866 13.3334 24.7687 13.3334C24.3162 13.3334 23.9124 13.2292 23.5562 13.0192C23.1999 12.8109 22.9228 12.5113 22.7228 12.1226C22.5241 11.7334 22.4216 11.2859 22.417 10.7767V10.1763C22.417 9.50883 22.5587 8.90841 22.8403 8.37633C23.122 7.84258 23.5241 7.42425 24.0466 7.12133C24.5707 6.81841 25.1499 6.66716 25.7882 6.66716L26.0087 6.66675ZM24.6774 10.0292C24.482 10.0292 24.3195 10.0747 24.1857 10.1659C24.0553 10.2588 23.9578 10.3709 23.8928 10.503V10.9522C23.8928 11.7676 24.1728 12.1763 24.7312 12.1763C24.9557 12.1763 25.1428 12.0738 25.2945 11.8705C25.4441 11.6655 25.5191 11.4113 25.5191 11.1022C25.5191 10.7863 25.4424 10.5276 25.2895 10.3292C25.1345 10.1288 24.9312 10.0292 24.6774 10.0292Z" fill="white"/>
</svg>
