<svg width="21" height="19" viewBox="0 0 21 19" fill="none" xmlns="http://www.w3.org/2000/svg">
<path d="M9.46326 0.791076V3.16607H6.88239V4.74941H9.46326V7.1244H11.1838V4.74941H13.7647V3.16607H11.1838V0.791076H9.46326ZM3.79913 1.57965L0.863732 1.59357L0.872133 3.1769L2.6532 3.16917L5.48778 9.42673L4.45779 10.942C3.73656 12.0019 4.61354 13.4577 5.9717 13.4577H16.3456V11.8744H5.9717C5.87597 11.8744 5.86493 11.857 5.91625 11.7816L6.92776 10.2911H13.353C13.9766 10.2911 14.554 9.97821 14.8569 9.47621L18.3955 3.61448L16.8917 2.84601L13.353 8.70774H7.02522L3.79913 1.57965ZM6.0221 14.2494C5.56578 14.2494 5.12814 14.4162 4.80547 14.7131C4.4828 15.0101 4.30153 15.4128 4.30153 15.8327C4.30153 16.2527 4.4828 16.6554 4.80547 16.9523C5.12814 17.2492 5.56578 17.4161 6.0221 17.4161C6.47843 17.4161 6.91607 17.2492 7.23874 16.9523C7.56141 16.6554 7.74268 16.2527 7.74268 15.8327C7.74268 15.4128 7.56141 15.0101 7.23874 14.7131C6.91607 14.4162 6.47843 14.2494 6.0221 14.2494ZM14.625 14.2494C14.1687 14.2494 13.731 14.4162 13.4084 14.7131C13.0857 15.0101 12.9044 15.4128 12.9044 15.8327C12.9044 16.2527 13.0857 16.6554 13.4084 16.9523C13.731 17.2492 14.1687 17.4161 14.625 17.4161C15.0813 17.4161 15.519 17.2492 15.8416 16.9523C16.1643 16.6554 16.3456 16.2527 16.3456 15.8327C16.3456 15.4128 16.1643 15.0101 15.8416 14.7131C15.519 14.4162 15.0813 14.2494 14.625 14.2494Z" fill="black"/>
</svg>
