<svg width="15" height="15" viewBox="0 0 15 15" fill="none" xmlns="http://www.w3.org/2000/svg">
<path d="M7.47283 0C4.12633 0 1.28021 2.14228 0.299811 5.09372H1.53154C1.69456 4.68693 1.90287 4.30446 2.14741 3.9441C2.18363 3.95073 2.2176 3.96178 2.25609 3.96178H3.34291C3.22743 4.31993 3.13234 4.70241 3.05309 5.09372H4.24859C4.33916 4.69798 4.44332 4.31551 4.57464 3.96178H10.371C10.5023 4.31551 10.6065 4.69798 10.6971 5.09372H11.8926C11.8133 4.70241 11.7182 4.31993 11.6027 3.96178H12.6896C12.7281 3.96178 12.762 3.95073 12.7983 3.9441C13.0405 4.30446 13.2511 4.68693 13.4141 5.09372H14.6458C13.6654 2.14228 10.8193 0 7.47283 0ZM7.47283 1.13194C8.37172 1.13194 9.20269 1.78413 9.82761 2.82984H5.11805C5.74297 1.78413 6.57394 1.13194 7.47283 1.13194ZM4.28482 1.9632C4.10595 2.2285 3.94519 2.52254 3.79575 2.82984H3.10743C3.46518 2.50043 3.85689 2.20639 4.28482 1.9632ZM10.6608 1.9632C11.0888 2.20639 11.4805 2.50043 11.8382 2.82984H11.1499C11.0005 2.52254 10.8397 2.2285 10.6608 1.9632ZM0.0824466 6.1726C0.0598047 6.18365 0.0439551 6.20797 0.0281055 6.22566C-0.00132909 6.26324 -0.00812186 6.30746 0.00999182 6.34946L0.915676 8.48953C0.938318 8.54259 0.992659 8.57797 1.06059 8.57797H1.54965C1.61305 8.57797 1.66966 8.54038 1.69456 8.48953L2.18363 7.4814C2.22665 7.38855 2.26741 7.28685 2.31043 7.18073C2.34892 7.2758 2.39194 7.36202 2.43723 7.46371L2.89007 8.48953C2.91271 8.54259 2.96932 8.57797 3.03498 8.57797H3.54216C3.60782 8.57797 3.66443 8.54259 3.68707 8.48953L4.64709 6.34946C4.66521 6.30746 4.66068 6.26324 4.62898 6.22566C4.59955 6.18807 4.55426 6.1726 4.50219 6.1726H3.95878C3.89085 6.1726 3.83651 6.20576 3.81387 6.26103L3.37914 7.33991C3.34065 7.43497 3.318 7.50793 3.28857 7.58752C3.25461 7.50351 3.22064 7.4195 3.17989 7.32222L2.70893 6.26103C2.68629 6.20797 2.62968 6.1726 2.56402 6.1726H2.11118C2.04552 6.1726 1.9708 6.20797 1.94816 6.26103L1.45909 7.33991C1.41833 7.43276 1.38437 7.52341 1.3504 7.60521C1.32097 7.52341 1.2938 7.43055 1.25984 7.33991L0.861335 6.26103C0.840957 6.20355 0.786616 6.1726 0.716425 6.1726H0.154901C0.127731 6.1726 0.105089 6.16154 0.0824466 6.1726ZM5.26296 6.1726C5.24032 6.18365 5.20635 6.20797 5.19051 6.22566C5.16107 6.26324 5.15428 6.30746 5.17239 6.34946L6.07808 8.48953C6.10072 8.54259 6.15506 8.57797 6.22299 8.57797H6.73017C6.79583 8.57797 6.85017 8.54038 6.87508 8.48953L7.36415 7.4814C7.40717 7.38855 7.44792 7.28685 7.49094 7.18073C7.52943 7.2758 7.55434 7.36202 7.59963 7.46371L8.07058 8.48953C8.09322 8.54259 8.14983 8.57797 8.21549 8.57797H8.70456C8.77022 8.57797 8.82683 8.54259 8.84947 8.48953L9.82761 6.34946C9.84572 6.30746 9.84119 6.26324 9.80949 6.22566C9.78006 6.18807 9.71893 6.1726 9.66459 6.1726H9.13929C9.07136 6.1726 8.99891 6.20576 8.97626 6.26103L8.55965 7.33991C8.52116 7.43497 8.4804 7.50793 8.45097 7.58752C8.417 7.50351 8.38304 7.4195 8.34229 7.32222L7.88944 6.26103C7.8668 6.20797 7.79208 6.1726 7.72642 6.1726H7.27358C7.20792 6.1726 7.15131 6.20797 7.12867 6.26103L6.6396 7.33991C6.59884 7.43276 6.56488 7.52341 6.53092 7.60521C6.50148 7.52341 6.47431 7.43055 6.44035 7.33991L6.04185 6.26103C6.02147 6.20355 5.94902 6.1726 5.87883 6.1726H5.33541C5.31051 6.1726 5.2856 6.16154 5.26296 6.1726ZM10.4254 6.1726C10.4027 6.18365 10.3869 6.20797 10.371 6.22566C10.3416 6.26324 10.3371 6.30746 10.3529 6.34946L11.2586 8.48953C11.2812 8.54259 11.3356 8.57797 11.4035 8.57797H11.8926C11.956 8.57797 12.0126 8.54038 12.0375 8.48953L12.5265 7.4814C12.5696 7.38855 12.6103 7.28685 12.6533 7.18073C12.6918 7.2758 12.7349 7.36202 12.7801 7.46371L13.233 8.48953C13.2556 8.54259 13.3122 8.57797 13.3779 8.57797H13.8851C13.9507 8.57797 14.0051 8.54259 14.03 8.48953L14.99 6.34946C15.0081 6.30746 15.0013 6.26324 14.9719 6.22566C14.9425 6.18807 14.8994 6.1726 14.8451 6.1726H14.3017C14.2338 6.1726 14.1772 6.20576 14.1568 6.26103L13.7221 7.33991C13.6836 7.43497 13.6609 7.50793 13.6315 7.58752C13.5975 7.50351 13.5636 7.4195 13.5228 7.32222L13.0518 6.26103C13.0292 6.20797 12.9726 6.1726 12.9069 6.1726H12.436C12.3703 6.1726 12.3137 6.20797 12.2911 6.26103L11.802 7.33991C11.7612 7.43276 11.7273 7.52341 11.6933 7.60521C11.6639 7.52341 11.6367 7.43055 11.6027 7.33991L11.2042 6.26103C11.1839 6.20355 11.1295 6.1726 11.0593 6.1726H10.4978C10.4706 6.1726 10.448 6.16154 10.4254 6.1726ZM0.299811 9.62147C1.28021 12.5729 4.12633 14.7152 7.47283 14.7152C10.8193 14.7152 13.6654 12.5729 14.6458 9.62147H13.4141C13.2511 10.0283 13.0405 10.4107 12.7983 10.7711C12.762 10.7645 12.7281 10.7534 12.6896 10.7534H11.6027C11.7182 10.3953 11.7952 10.0128 11.8745 9.62147H10.6971C10.6088 10.0172 10.5023 10.4019 10.371 10.7534H4.57464C4.44332 10.4019 4.33916 10.0172 4.24859 9.62147H3.0712C3.15045 10.0128 3.22743 10.3953 3.34291 10.7534H2.25609C2.2176 10.7534 2.18363 10.7645 2.14741 10.7711C1.90514 10.4107 1.69456 10.0283 1.53154 9.62147H0.299811ZM3.10743 11.8853H3.79575C3.94519 12.1926 4.10595 12.4867 4.28482 12.752C3.85689 12.5088 3.46518 12.2148 3.10743 11.8853ZM5.11805 11.8853H9.82761C9.20269 12.9311 8.37172 13.5833 7.47283 13.5833C6.57394 13.5833 5.74297 12.9311 5.11805 11.8853ZM11.1499 11.8853H11.8382C11.4805 12.2148 11.0888 12.5088 10.6608 12.752C10.8397 12.4867 11.0005 12.1926 11.1499 11.8853Z" fill="#FCFAF7"/>
</svg>
