<svg width="20" height="20" viewBox="0 0 20 20" fill="none" xmlns="http://www.w3.org/2000/svg">
<path d="M3.125 2.5V3.125V5.52368L1.875 9.27368V9.375C1.875 10.1834 2.40161 10.872 3.125 11.1328V17.5H16.875V11.1328C17.5984 10.872 18.125 10.1834 18.125 9.375V9.27368L16.875 5.52368V2.5H3.125ZM4.375 3.75H5.625V5H4.375V3.75ZM6.875 3.75H8.125V5H6.875V3.75ZM9.375 3.75H15.625V5H9.375V3.75ZM4.20044 6.25H4.375V9.375C4.375 9.72159 4.09659 10 3.75 10C3.42123 10 3.17117 9.74175 3.14453 9.42017L4.20044 6.25ZM5.625 6.25H6.875V9.375C6.875 9.72159 6.59659 10 6.25 10C5.90341 10 5.625 9.72159 5.625 9.375V6.25ZM8.125 6.25H9.375V9.375C9.375 9.72159 9.09659 10 8.75 10C8.40341 10 8.125 9.72159 8.125 9.375V6.25ZM10.625 6.25H11.875V9.375C11.875 9.72159 11.5966 10 11.25 10C10.9034 10 10.625 9.72159 10.625 9.375V6.25ZM13.125 6.25H14.375V9.375C14.375 9.72159 14.0966 10 13.75 10C13.4034 10 13.125 9.72159 13.125 9.375V6.25ZM15.625 6.25H15.7996L16.8555 9.42017C16.8288 9.74175 16.5788 10 16.25 10C15.9034 10 15.625 9.72159 15.625 9.375V6.25ZM15.0037 10.7556C15.1844 10.9174 15.3927 11.0491 15.625 11.1328V16.25H4.375V11.1328C4.60813 11.0488 4.81927 10.9217 5 10.7581C5.33332 11.0599 5.76949 11.25 6.25 11.25C6.73051 11.25 7.16668 11.0599 7.5 10.7581C7.83332 11.0599 8.26949 11.25 8.75 11.25C9.23051 11.25 9.66668 11.0599 10 10.7581C10.3333 11.0599 10.7695 11.25 11.25 11.25C11.7305 11.25 12.1667 11.0599 12.5 10.7581C12.8333 11.0599 13.2695 11.25 13.75 11.25C14.2321 11.25 14.67 11.0592 15.0037 10.7556Z" fill="black"/>
</svg>
