<svg width="18" height="17" viewBox="0 0 18 17" fill="none" xmlns="http://www.w3.org/2000/svg">
<g clip-path="url(#clip0_1_4066)">
<path d="M8.16795 1.13798C8.01548 1.12056 7.85548 1.15868 7.72498 1.2553L0.229683 6.80243C-0.0313163 6.99566 -0.0768693 7.35169 0.12773 7.59819C0.15653 7.63276 2.17265 10.1183 2.17265 10.1183C2.23922 10.1985 2.31754 10.2636 2.39999 10.3219V11.9002H1.79999C1.72049 11.8991 1.64155 11.913 1.56777 11.941C1.49399 11.969 1.42683 12.0106 1.37021 12.0633C1.31359 12.116 1.26863 12.1789 1.23794 12.2481C1.20725 12.3174 1.19145 12.3918 1.19145 12.4669C1.19145 12.542 1.20725 12.6163 1.23794 12.6856C1.26863 12.7549 1.31359 12.8177 1.37021 12.8704C1.42683 12.9232 1.49399 12.9647 1.56777 12.9927C1.64155 13.0207 1.72049 13.0346 1.79999 13.0335H2.43046C2.5789 13.9886 3.45003 14.7335 4.49999 14.7335C5.54995 14.7335 6.42108 13.9886 6.56952 13.0335H10.8H12.0304C12.1789 13.9886 13.05 14.7335 14.1 14.7335C15.1499 14.7335 16.0211 13.9886 16.1695 13.0335H17.4C17.4795 13.0346 17.5584 13.0207 17.6322 12.9927C17.706 12.9647 17.7731 12.9232 17.8298 12.8704C17.8864 12.8177 17.9313 12.7549 17.962 12.6856C17.9927 12.6163 18.0085 12.542 18.0085 12.4669C18.0085 12.3918 17.9927 12.3174 17.962 12.2481C17.9313 12.1789 17.8864 12.116 17.8298 12.0633C17.7731 12.0106 17.706 11.969 17.6322 11.941C17.5584 11.913 17.4795 11.8991 17.4 11.9002V9.06687H13.8V6.80021C13.8 6.48741 14.0688 6.23355 14.4 6.23355H16.1144L15.9117 5.78752C15.7227 5.37102 15.289 5.10021 14.809 5.10021H12C11.337 5.10021 10.8 5.60738 10.8 6.23355V10.2002H9.59881L7.52928 7.59266L9.31639 6.26896C9.83779 5.88306 9.92889 5.17097 9.52029 4.67854L7.81756 2.62659L8.46561 2.14625C8.72661 1.95302 8.77216 1.59809 8.56756 1.35159C8.46556 1.22834 8.32043 1.15541 8.16795 1.13798ZM6.58475 8.29214L8.09998 10.2002H4.0078L6.58475 8.29214ZM4.49999 11.9002C5.00415 11.9002 5.39999 12.274 5.39999 12.7502C5.39999 13.2264 5.00415 13.6002 4.49999 13.6002C3.99583 13.6002 3.59999 13.2264 3.59999 12.7502C3.59999 12.274 3.99583 11.9002 4.49999 11.9002ZM14.1 11.9002C14.6041 11.9002 15 12.274 15 12.7502C15 13.2264 14.6041 13.6002 14.1 13.6002C13.5958 13.6002 13.2 13.2264 13.2 12.7502C13.2 12.274 13.5958 11.9002 14.1 11.9002Z" fill="#FCFAF7"/>
</g>
<defs>
<clipPath id="clip0_1_4066">
<rect width="17.1089" height="16.1584" fill="white" transform="scale(1.05208)"/>
</clipPath>
</defs>
</svg>
