<svg width="26" height="27" viewBox="0 0 26 27" fill="none" xmlns="http://www.w3.org/2000/svg">
<path d="M21.3941 16.7918C21.2671 15.1188 21.0792 13.451 20.9624 11.7728C20.8456 10.1153 20.7796 8.44751 20.7339 6.78484C20.7136 6.08776 20.7288 5.39068 20.7237 4.69359C20.7237 4.37345 20.7136 4.04298 20.6577 3.72801C20.6323 3.59375 20.6069 3.46466 20.5562 3.33558C20.5359 3.28394 20.5155 3.23747 20.4902 3.191C20.4546 3.22198 20.4089 3.24263 20.348 3.25296C19.114 3.44401 17.8444 3.50597 16.5952 3.55245C14.9499 3.60924 13.2995 3.63506 11.6542 3.74866C10.8315 3.80546 10.014 3.87775 9.19131 3.89324C8.53115 3.90873 7.87607 3.93971 7.21592 3.98619C6.80967 4.01717 6.40341 4.02749 5.99716 4.06364C5.79404 4.08429 5.58584 4.09978 5.38271 4.14109C5.32177 4.15142 5.26083 4.17207 5.20498 4.19273C5.21005 4.21338 5.21005 4.2392 5.20498 4.25985C5.17958 4.61098 5.2913 4.95694 5.35732 5.29257C5.42841 5.65402 5.44365 6.02063 5.4538 6.38724C5.47412 7.16694 5.49951 7.94664 5.51982 8.72634C5.56552 10.3374 5.5706 11.9484 5.7331 13.5543C5.81435 14.3701 5.92099 15.186 6.0124 16.0018C6.09873 16.7867 6.08857 17.587 6.08857 18.3719C6.08349 19.9571 6.07841 21.5372 6.07841 23.1224C6.21552 23.1224 6.34756 23.1224 6.48466 23.1224C9.61787 23.1275 12.7562 23.1843 15.8894 23.2101C15.93 23.1533 15.996 23.1172 16.0874 23.1224C16.4937 23.1327 16.7679 22.606 16.9355 22.2962C17.0726 22.0432 17.1843 21.7798 17.3011 21.5165C16.7323 21.5217 16.1788 21.6404 15.6151 21.7179C14.7773 21.8315 13.9444 21.9709 13.1015 22.038C11.6187 22.1619 10.0597 22.3168 8.60225 21.8883C8.25693 21.7902 8.36357 21.2273 8.70889 21.3306C10.1663 21.7592 11.7608 21.5991 13.2538 21.4494C14.0612 21.3719 14.8636 21.2377 15.6659 21.1344C16.1991 21.0621 16.7171 20.9537 17.2503 20.9485C17.2554 20.9485 17.2605 20.9485 17.2655 20.9485H17.2808C17.3722 20.9485 17.4433 20.9846 17.4941 21.0414C17.6159 20.7471 17.7226 20.427 17.7987 20.0914C17.5245 20.0759 17.2401 20.1275 16.9659 20.1378C16.5444 20.1533 16.128 20.1946 15.7167 20.2617C14.9144 20.3857 14.1171 20.5354 13.3097 20.6232C11.6847 20.7988 10.0546 20.8917 8.42959 20.7213C8.06904 20.6852 8.18076 20.1275 8.53623 20.1636C10.2019 20.3392 11.898 20.2204 13.5585 20.0294C14.3659 19.9364 15.1581 19.7609 15.9655 19.6576C16.3566 19.606 16.7476 19.5956 17.1386 19.5698C17.3773 19.5543 17.621 19.5285 17.8597 19.5389C17.8597 19.5079 17.8648 19.4769 17.8648 19.4407C17.8698 19.4149 17.8698 19.3839 17.8749 19.3581C17.8901 19.3581 17.9054 19.3581 17.9206 19.3581C17.9359 19.1877 17.946 19.0173 17.946 18.8469C17.1843 18.9347 16.4378 19.0483 15.6913 19.2342C14.8026 19.4562 13.9394 19.7196 13.0253 19.7867C12.1265 19.8487 11.2226 19.8383 10.3237 19.7815C9.9124 19.7557 9.50615 19.7247 9.09482 19.6989C8.73428 19.6783 8.38389 19.6421 8.05381 19.4872C7.72881 19.3323 7.97764 18.8263 8.30264 18.976C8.63271 19.1309 9.0085 19.1258 9.35889 19.1413C9.75498 19.1619 10.1511 19.2084 10.5472 19.2239C11.4206 19.2703 12.3042 19.2858 13.1726 19.1981C14.0663 19.1103 14.9194 18.8263 15.7929 18.6197C16.4937 18.4545 17.1995 18.3512 17.9105 18.2686C17.8851 18.0672 17.8444 17.8659 17.7886 17.6748C17.7835 17.6748 17.7784 17.6748 17.7734 17.6748C17.7226 17.6851 17.6718 17.6903 17.621 17.7006C17.4737 17.7213 17.3316 17.7523 17.1894 17.7781C16.7679 17.8607 16.3464 17.933 15.9198 17.9898C15.0413 18.1085 14.1628 18.1808 13.2792 18.2325C11.4917 18.3357 9.70928 18.3719 7.92178 18.3719C7.56123 18.3719 7.5206 17.8039 7.88115 17.8039C9.73467 17.8039 11.5831 17.7677 13.4366 17.649C14.3761 17.587 15.3206 17.5096 16.2499 17.3598C16.6511 17.2979 17.0523 17.1894 17.4534 17.143C17.6362 17.1223 17.9054 17.019 18.0831 17.1275C18.0882 17.1275 18.0882 17.1326 18.0933 17.1326V17.0862C18.0984 17.0862 18.1034 17.0913 18.1034 17.0913C18.7179 17.4063 19.3273 17.84 20.028 17.9072C20.2413 17.9278 20.4597 17.9381 20.673 17.9227C20.7593 17.9175 21.0894 17.9072 21.13 17.84C21.2011 17.7161 21.323 17.6851 21.4347 17.7058C21.4398 17.4166 21.4195 17.1068 21.3941 16.7918ZM19.5202 13.7092C18.5402 13.7143 17.5601 13.8847 16.5851 14.0087C15.6355 14.1326 14.6909 14.2875 13.7464 14.4424C12.8069 14.5973 11.8675 14.7574 10.9179 14.84C9.97334 14.9175 9.02373 14.9484 8.0792 14.9484C7.71865 14.9484 7.67803 14.3804 8.03857 14.3804C9.01865 14.3804 9.99873 14.3546 10.9788 14.2617C11.9284 14.1739 12.8679 14.0138 13.8073 13.8589C14.7519 13.6989 15.6964 13.5439 16.6511 13.4252C17.5601 13.3116 18.4691 13.1567 19.3831 13.1412C19.3933 13.1412 19.4034 13.1412 19.4187 13.1412H19.4847C19.8351 13.1412 19.8808 13.704 19.5202 13.7092ZM19.312 11.5715C19.2003 11.5508 19.0277 11.5921 18.9007 11.6128C18.7484 11.6334 18.596 11.6386 18.4437 11.6541C18.0019 11.6954 17.5601 11.7574 17.1183 11.8348C16.2194 11.9949 15.3206 12.124 14.4066 12.1291C14.046 12.1291 14.0054 11.5663 14.3659 11.5611C15.3511 11.556 16.3007 11.3856 17.2706 11.2358C17.7124 11.1687 18.1542 11.1171 18.6011 11.0758C18.8652 11.0499 19.1495 10.9725 19.4187 11.0138C19.7741 11.0706 19.6675 11.6283 19.312 11.5715ZM18.9109 9.35629C18.8296 9.40277 18.7687 9.42858 18.6722 9.43891C18.6316 9.44408 18.596 9.43891 18.5655 9.42858C17.8749 9.5112 17.1843 9.65578 16.4987 9.75905C15.8995 9.852 15.2851 9.88298 14.6808 9.88298C14.3202 9.88298 14.2796 9.31499 14.6401 9.31499C15.28 9.31499 15.8995 9.2427 16.5343 9.17557C17.2757 9.09812 17.9968 8.90706 18.7331 8.82961C19.0023 8.81412 19.1546 9.21171 18.9109 9.35629ZM19.0226 10.5078C18.9362 10.5491 18.8499 10.5439 18.7788 10.5078C18.1085 10.5233 17.4484 10.6782 16.778 10.7505C16.0671 10.8279 15.3663 11.0499 14.6452 11.0241C14.2898 11.0138 14.2441 10.4458 14.6046 10.4561C15.3257 10.482 16.0265 10.2548 16.7374 10.1825C17.4839 10.105 18.2152 9.91912 18.9718 9.93978C19.3171 9.95011 19.378 10.4665 19.0226 10.5078ZM18.8144 8.48882L18.8194 8.47849C18.7128 8.58176 18.5503 8.5766 18.4437 8.50947C17.753 8.5198 17.0776 8.67987 16.3972 8.77281C15.6558 8.87608 14.9194 8.92256 14.173 8.92256C13.8124 8.92256 13.7718 8.35456 14.1323 8.35456C14.9093 8.35456 15.6862 8.30809 16.453 8.18933C17.1792 8.07573 17.9003 7.91566 18.6366 7.94148C18.7534 7.94664 18.8905 7.99828 18.921 8.13253C18.921 8.14286 18.9261 8.14802 18.9261 8.15835C18.9566 8.28744 18.9261 8.4062 18.8144 8.48882ZM17.5347 4.27535C17.9257 3.93971 18.5757 3.81062 19.048 4.01717C19.378 4.16175 19.1292 4.66778 18.7991 4.52836C18.5909 4.44058 18.2101 4.49738 18.0222 4.6213C17.9765 4.65229 17.6362 4.94661 17.7175 4.97759C17.9359 5.05504 18.2101 4.98792 18.4386 5.04472C18.728 5.11701 18.9616 5.25642 19.1292 5.50944C19.4288 5.95867 19.439 6.62477 19.0124 6.99654C18.6468 7.31669 18.0933 7.37865 17.6312 7.38381C17.2706 7.38898 17.23 6.82098 17.5905 6.81582C17.9917 6.81066 18.8499 6.77967 18.7941 6.1807C18.7636 5.84507 18.5757 5.66951 18.271 5.59205C18.0273 5.53009 17.7734 5.59205 17.5296 5.50944C16.905 5.27708 17.1741 4.58516 17.5347 4.27535ZM12.9593 4.46123C12.9745 4.09978 13.5331 4.05331 13.5179 4.41992C13.4976 4.92595 13.8175 5.39068 13.98 5.8554C14.0663 6.11357 14.1526 6.38724 14.2796 6.64026C14.3405 6.42855 14.3913 6.22201 14.4218 6.00514C14.4675 5.66951 14.4929 5.33388 14.6909 5.04988C14.7823 4.92079 14.9804 4.93112 15.087 5.02406C15.478 5.37002 15.6659 5.83474 15.8843 6.28397C15.93 6.06194 15.9706 5.83474 15.9858 5.60755C16.0062 5.31839 15.9757 4.98275 16.1382 4.72974C16.3312 4.43025 16.839 4.6781 16.6409 4.98275C16.4886 5.22028 16.5597 5.59722 16.514 5.86572C16.4429 6.28397 16.3566 6.69706 16.2905 7.11014C16.2499 7.36832 15.9249 7.3993 15.7827 7.21341C15.4476 6.77967 15.3054 6.21685 14.9956 5.76762C14.9753 5.92769 14.9753 6.09292 14.9448 6.22717C14.8636 6.60411 14.7417 6.97073 14.6605 7.34767C14.6198 7.54388 14.3558 7.66781 14.2034 7.50774C13.8226 7.09465 13.6296 6.56281 13.4468 6.03612C13.269 5.52493 12.9339 5.02406 12.9593 4.46123ZM10.0241 4.60065C10.0546 4.54901 10.1003 4.50771 10.1663 4.48189C10.5472 4.33214 10.9382 4.43542 11.3343 4.40443C11.4917 4.38894 11.6491 4.39927 11.8065 4.39411C11.8827 4.38894 11.9589 4.38894 12.0351 4.37862C12.0554 4.37862 12.1671 4.33731 12.1062 4.37862C12.4058 4.17207 12.7155 4.64712 12.421 4.8485C12.1874 5.00857 11.7913 4.9621 11.5222 4.96726C11.1819 4.96726 10.7554 4.89497 10.4202 5.00341C10.4761 5.22028 10.4812 5.48878 10.4812 5.685C10.5015 5.67984 10.5269 5.67467 10.5522 5.67984C10.923 5.685 11.2835 5.70565 11.6491 5.66434C11.8929 5.63853 12.1773 5.57656 12.421 5.64885C12.7612 5.75213 12.6597 6.31495 12.3144 6.20652C12.0858 6.13423 11.8065 6.22717 11.573 6.24266C11.2429 6.26332 10.923 6.24783 10.5929 6.24783C10.5624 6.24783 10.5319 6.24266 10.5065 6.23234C10.5218 6.54215 10.537 6.85197 10.5218 7.15662C11.1972 7.13596 11.8675 6.99654 12.548 7.02236C12.9034 7.03785 12.9491 7.60068 12.5886 7.59035C11.8726 7.56454 11.1718 7.71944 10.4558 7.72977C10.3339 7.72977 10.2476 7.66781 10.2019 7.58003C10.0647 7.54905 9.93779 7.43545 9.95811 7.25472C9.95811 7.2444 9.95811 7.24956 9.95811 7.24956C9.95811 7.2444 9.95811 7.23407 9.95811 7.21858C9.95811 7.17727 9.95811 7.1308 9.95811 7.08949C9.95811 6.99138 9.95811 6.89327 9.95811 6.79517C9.95303 6.54731 9.94795 6.30463 9.93272 6.06194C9.92256 5.82442 9.90733 5.58689 9.88194 5.35453C9.87178 5.26675 9.86162 5.17897 9.84639 5.09635C9.84131 5.08086 9.84131 5.0757 9.84131 5.0757C9.84131 5.0757 9.83623 5.07053 9.83623 5.06021C9.72451 4.87948 9.81084 4.61098 10.0241 4.60065ZM6.73349 4.93628C6.76904 4.70908 6.99756 4.66778 7.1499 4.75556C7.22607 4.7349 7.3124 4.74523 7.39365 4.81236C7.76435 5.11184 7.94717 5.63336 8.18584 6.03612C8.3585 6.32528 8.57686 6.56797 8.78506 6.82615C8.81045 6.55764 8.82061 6.28397 8.85107 6.01547C8.89678 5.66951 8.99834 5.29257 8.95771 4.94144C8.91709 4.57483 9.47061 4.53352 9.51631 4.90014C9.55693 5.27191 9.45537 5.67467 9.40967 6.04128C9.34365 6.55764 9.36904 7.08949 9.20654 7.59035C9.11514 7.86919 8.79521 7.89501 8.66826 7.63166C8.42451 7.1308 7.9624 6.78484 7.68818 6.30463C7.55107 6.06194 7.4292 5.75729 7.26162 5.50944C7.28701 5.87089 7.37842 6.24266 7.41396 6.58346C7.45459 7.00171 7.47998 7.41996 7.47998 7.84337C7.47998 7.84853 7.47998 7.8537 7.47998 7.85886V7.90017C7.47998 8.26678 6.92138 8.30809 6.92138 7.94148C6.92138 7.46127 6.89599 6.98105 6.84013 6.50084C6.79951 5.99481 6.65224 5.45264 6.73349 4.93628ZM7.25146 11.4217C7.20068 11.2255 7.13467 11.0293 7.08388 10.8331C6.96201 10.3787 6.86045 9.91912 6.76396 9.45957C6.71826 9.23753 6.92138 9.13426 7.09404 9.18073C7.10927 9.16524 7.12959 9.14975 7.15498 9.13426C7.51553 8.93288 7.94209 8.93805 8.33818 8.88125C8.87646 8.80379 9.40459 8.68503 9.94795 8.6334C10.8468 8.54045 11.7558 8.47849 12.6597 8.47333C12.7257 8.24613 13.0964 8.17384 13.198 8.45267C13.3858 8.97419 13.4417 9.55251 13.4925 10.105C13.5534 10.7246 13.5839 11.3443 13.5839 11.9691C13.5839 12.062 13.5534 12.1756 13.462 12.2272C13.1726 12.3873 12.873 12.4957 12.553 12.568C12.5073 12.5784 12.4667 12.5784 12.4261 12.5732C12.03 12.821 11.3546 12.6765 10.9483 12.6403C10.6081 12.6093 10.2628 12.6248 9.91748 12.6352C9.52647 12.6455 9.13037 12.6352 8.73936 12.7023C8.13506 12.8107 7.42412 12.8262 7.3124 12.0517C7.28701 11.8348 7.30224 11.6179 7.25146 11.4217ZM7.72881 13.3477C9.64834 13.3426 11.5577 13.0896 13.4671 12.9037C14.4472 12.8107 15.4273 12.7178 16.4023 12.568C16.8644 12.4957 17.3265 12.4544 17.7886 12.3821C18.0577 12.3408 18.3421 12.3615 18.6163 12.3253C18.6569 12.2737 18.7179 12.2427 18.8042 12.2427H18.9718C19.2816 12.2427 19.3984 12.6816 19.0835 12.7952C18.6976 12.9346 18.3015 12.8727 17.9054 12.9346C17.4534 13.0069 16.9964 13.0482 16.5444 13.1205C15.5694 13.2703 14.5894 13.3684 13.6093 13.4613C11.6694 13.6472 9.72959 13.9054 7.77451 13.9106C7.41396 13.9157 7.37334 13.3477 7.72881 13.3477ZM7.7999 15.5164C8.72412 15.4648 9.65342 15.5784 10.5776 15.5268C11.5069 15.4751 12.4362 15.346 13.3605 15.2531C14.3456 15.155 15.3257 15.0569 16.3058 14.9329C16.773 14.8761 17.2503 14.8503 17.7175 14.7574C18.073 14.6851 18.398 14.5715 18.7585 14.556C18.7737 14.556 18.7839 14.5508 18.7991 14.5508H18.8601C19.2206 14.5508 19.2612 15.1188 18.9007 15.1188C18.4691 15.1188 18.0831 15.2737 17.6616 15.3409C17.1944 15.4183 16.7171 15.4545 16.2448 15.5113C15.2952 15.6249 14.3456 15.723 13.396 15.8159C12.4413 15.914 11.4815 16.0534 10.5167 16.0948C9.62295 16.1309 8.72412 16.0328 7.83037 16.0793C7.47998 16.1051 7.43935 15.5371 7.7999 15.5164ZM19.9112 15.9863C19.703 16.198 19.3222 16.1412 19.053 16.1722C18.5757 16.2342 18.1034 16.3942 17.6261 16.4562C17.0776 16.5337 16.5292 16.5543 15.9757 16.5905C15.4273 16.6266 14.8839 16.6989 14.3456 16.7712C13.2386 16.9209 12.1366 17.1378 11.0144 17.1688C10.4761 17.1843 9.93779 17.1791 9.39443 17.1791C8.92725 17.1791 8.42451 17.2411 7.96748 17.1378C7.61709 17.0603 7.72373 16.5027 8.07412 16.5801C8.54131 16.6834 9.06943 16.6111 9.5417 16.6111C10.0495 16.6111 10.5573 16.6163 11.0651 16.6008C12.1214 16.5595 13.1573 16.3633 14.2034 16.2187C14.7468 16.1464 15.2901 16.0689 15.8335 16.0328C16.3515 15.9966 16.8694 15.9812 17.3823 15.9192C17.88 15.8572 18.3726 15.7488 18.8601 15.6352C18.9921 15.6042 19.1292 15.599 19.2663 15.5887C19.3374 15.5836 19.4136 15.5784 19.4847 15.5681C19.5862 15.5526 19.571 15.5216 19.4847 15.6145C19.7437 15.3512 20.1652 15.7281 19.9112 15.9863Z" fill="#D6E5E5"/>
<path d="M20.084 18.5062C19.4848 18.4597 18.9618 18.2067 18.4438 17.9331C18.459 18.026 18.4743 18.1241 18.4844 18.2222C18.4996 18.2325 18.5149 18.2532 18.525 18.2687C18.5098 18.2893 18.5047 18.3152 18.5098 18.3461C18.5301 18.4804 18.5352 18.6147 18.5403 18.7489C18.5352 18.7541 18.525 18.7592 18.5149 18.7644C18.52 19.668 18.2965 20.6026 17.9715 21.3926C17.8903 21.5837 17.8141 21.7799 17.7328 21.971C18.1188 21.5992 18.525 21.2481 18.9211 20.8763C19.3629 20.458 19.7895 20.0295 20.2262 19.6061C20.5969 19.2446 20.9575 18.8677 21.2723 18.4546C21.2723 18.4443 21.2774 18.4339 21.2825 18.4236C20.9118 18.5733 20.4243 18.532 20.084 18.5062Z" fill="#BCBCBC"/>
<path d="M22.5824 21.0053C22.491 20.7729 22.5418 20.5354 22.5164 20.2876C22.4757 19.9416 22.4504 19.5905 22.4453 19.2394C22.43 18.4442 22.4097 17.6541 22.4097 16.859C22.4046 15.1653 22.2472 13.482 22.1457 11.7935C22.0492 10.1205 22.105 8.44751 21.8714 6.78484C21.8105 6.36143 21.7191 5.94318 21.6683 5.51977C21.6226 5.14283 21.6175 4.76589 21.5617 4.38895C21.5007 3.97586 21.3839 3.57827 21.323 3.16518C21.2773 2.86569 21.2468 2.56104 21.2113 2.26156C21.1504 2.27188 21.0945 2.26156 21.0539 2.23057C19.7234 2.2977 18.3828 2.28737 17.0574 2.4113C15.6914 2.54039 14.3355 2.7934 12.9644 2.85537C11.5984 2.91733 10.2273 2.88118 8.85619 2.94831C8.50072 2.9638 8.14525 2.98962 7.78978 3.01544C7.48509 3.04125 7.18549 3.16002 6.8808 3.17551C6.74877 3.18067 6.62181 3.18583 6.48978 3.15485C6.42377 3.13936 6.36283 3.11871 6.29681 3.10838C6.2765 3.10838 6.26634 3.10838 6.25619 3.10838C6.25111 3.17551 6.28158 3.26845 6.29173 3.32009C6.30189 3.37172 6.30189 3.42336 6.30189 3.47499C6.56087 3.4595 6.81986 3.44401 7.08392 3.42852C8.53119 3.33558 9.97338 3.29943 11.4206 3.19616C13.0964 3.0774 14.7824 3.04642 16.4632 2.98962C17.7429 2.94315 19.048 2.88635 20.3125 2.69013C20.3632 2.67981 20.4089 2.68497 20.4445 2.70046C20.5156 2.64882 20.607 2.62817 20.7086 2.66431C20.9675 2.75726 21.0793 3.08773 21.1453 3.34074C21.2214 3.64539 21.2621 3.96037 21.2722 4.27535C21.2976 4.93112 21.2621 5.58689 21.2773 6.24267C21.2925 7.074 21.3332 7.90533 21.3738 8.73667C21.45 10.4097 21.5312 12.0775 21.6836 13.7453C21.8207 15.2634 21.973 16.7867 22.0441 18.3099H21.9019C21.9375 18.3977 21.9324 18.501 21.8613 18.5991C21.5058 19.1051 21.0793 19.5543 20.6375 19.9881C20.2211 20.3908 19.8148 20.8039 19.3933 21.2015C19.0175 21.5578 18.6113 21.8986 18.2253 22.2601C18.5707 22.2033 18.9109 22.1155 19.2562 22.0329C19.698 21.9296 20.1296 21.8676 20.5816 21.8211C21.0742 21.7747 21.5718 21.723 22.0593 21.6456C22.166 21.6301 22.4757 21.6301 22.5214 21.501C22.557 21.4029 22.5367 21.2686 22.5367 21.1654C22.5367 21.0982 22.5519 21.0466 22.5824 21.0053Z" fill="#BCBCBC"/>
<path d="M12.9441 10.2341C12.9035 9.83655 12.873 9.42347 12.7816 9.02587C11.8777 9.03104 10.9738 9.08784 10.0749 9.18078C9.57221 9.23242 9.07456 9.34085 8.57182 9.41314C8.3687 9.44412 8.16557 9.4751 7.95737 9.49576C7.79487 9.51125 7.61206 9.52158 7.46479 9.59903C7.42924 9.61968 7.39877 9.63001 7.36323 9.63518C7.43432 9.97081 7.51049 10.3116 7.60698 10.6421C7.70854 10.988 7.8101 11.3237 7.84057 11.6851C7.86088 11.9485 7.84057 12.2015 8.15542 12.1911C8.4144 12.186 8.66323 12.1189 8.91714 12.0879C9.29292 12.0414 9.68901 12.0621 10.0648 12.0517C10.3593 12.0414 10.6539 12.0362 10.9484 12.0621C11.1921 12.0827 11.441 12.1137 11.6847 12.1189C11.7964 12.1189 12.091 12.1292 12.1417 12.0724C12.2332 11.9639 12.355 11.9588 12.4515 12.0053C12.6445 11.9588 12.8375 11.8968 13.0152 11.8142C13.0203 11.2824 12.9949 10.7557 12.9441 10.2341Z" fill="#1E4384"/>
<path d="M23.0903 21.0517C23.1309 20.9691 23.1411 20.871 23.0852 20.7729C23.0446 20.6955 23.0751 20.5199 23.0751 20.4373C23.0751 20.2927 23.0598 20.1533 23.0497 20.0139C23.0192 19.6524 22.9989 19.291 22.9989 18.9244C22.9989 18.1188 22.9735 17.3133 22.9634 16.5078C22.9481 14.8503 22.7856 13.198 22.6891 11.5456C22.5977 9.9036 22.6434 8.27192 22.4149 6.64023C22.3591 6.2478 22.2829 5.8657 22.222 5.47326C22.1661 5.10149 22.161 4.71938 22.1153 4.34244C22.0696 3.96034 21.9528 3.59373 21.8919 3.21162C21.8259 2.8037 21.7852 2.38545 21.7395 1.97237C21.7192 1.78648 21.577 1.70902 21.445 1.71935C21.3891 1.66772 21.313 1.63673 21.2368 1.6419C19.7946 1.72451 18.3473 1.70902 16.9102 1.84844C15.4477 1.98786 14.0005 2.2512 12.5278 2.29767C11.0602 2.34414 9.59264 2.31316 8.13014 2.41643C7.7899 2.43709 7.44966 2.4629 7.11959 2.54552C6.99263 2.5765 6.85045 2.62298 6.71841 2.61265C6.59146 2.60232 6.46959 2.55069 6.34263 2.53003C6.08873 2.48872 5.89068 2.59199 5.75865 2.81403C5.62662 3.03606 5.7688 3.26842 5.74849 3.49045C5.74849 3.50078 5.74849 3.50594 5.74849 3.51627C5.43365 3.54725 4.98169 3.57307 4.76333 3.81576C4.73286 3.84674 4.70747 3.88289 4.69224 3.92419C4.66177 3.99132 4.66177 4.05328 4.67193 4.11008C4.66685 4.12557 4.66685 4.1359 4.66685 4.15139C4.64146 4.49735 4.69732 4.81749 4.76841 5.15312C4.84966 5.51974 4.88521 5.87086 4.90044 6.24264C4.93091 7.02233 4.94107 7.79687 4.96646 8.57657C5.02232 10.2237 5.02232 11.8658 5.17466 13.5026C5.25083 14.3185 5.35747 15.1343 5.44888 15.9501C5.54029 16.735 5.53521 17.5354 5.53521 18.3254C5.53013 19.9932 5.52505 21.6662 5.52505 23.334C5.52505 23.4683 5.59615 23.5457 5.68755 23.5716C5.73833 23.6439 5.81451 23.6955 5.92623 23.6955C9.28795 23.6955 12.6446 23.7575 16.0063 23.7833C16.311 23.7884 16.6208 23.7884 16.9255 23.7884V23.7368C16.961 23.7161 16.9966 23.68 17.0219 23.6387C17.2098 23.3392 17.4282 23.0604 17.6669 22.8022C17.7126 22.8383 17.7786 22.8642 17.8548 22.859C18.393 22.828 18.9161 22.6834 19.4391 22.5543C20.0079 22.4149 20.5919 22.3788 21.1759 22.3168C21.4552 22.2858 21.7345 22.2497 22.0087 22.2084C22.2423 22.1722 22.4962 22.1567 22.7095 22.0483C23.0852 21.8573 23.0954 21.4803 23.0903 21.1034C23.0954 21.0931 23.0954 21.0724 23.0903 21.0517ZM17.5094 21.0517C17.4587 20.9949 17.3876 20.9588 17.2962 20.9588H17.2809C17.2759 20.9588 17.2708 20.9588 17.2657 20.9588C16.7274 20.964 16.2094 21.0724 15.6813 21.1447C14.879 21.2531 14.0766 21.3822 13.2692 21.4597C11.7813 21.6094 10.1868 21.7643 8.72428 21.3409C8.37896 21.2376 8.27232 21.8005 8.61764 21.8986C10.07 22.322 11.629 22.1671 13.1169 22.0483C13.9598 21.9812 14.7926 21.8418 15.6305 21.7282C16.1942 21.6507 16.7477 21.532 17.3165 21.5268C17.2048 21.7901 17.088 22.0535 16.9509 22.3065C16.7833 22.6163 16.5091 23.143 16.1028 23.1327C16.0114 23.1327 15.9454 23.1688 15.9048 23.2204C12.7715 23.1946 9.63326 23.1378 6.50005 23.1327C6.36294 23.1327 6.23091 23.1327 6.0938 23.1327C6.0938 21.5474 6.09888 19.9674 6.10396 18.3822C6.10904 17.5973 6.11412 16.797 6.02779 16.0121C5.93638 15.1963 5.82974 14.3804 5.74849 13.5646C5.58599 11.9587 5.57583 10.3477 5.53521 8.73664C5.5149 7.95694 5.48951 7.17724 5.46919 6.39754C5.45904 6.03093 5.4438 5.66432 5.37271 5.30287C5.30669 4.96723 5.19497 4.61611 5.22036 4.27015C5.22036 4.24433 5.22036 4.22368 5.22036 4.20303C5.27622 4.18237 5.33716 4.16688 5.3981 4.15139C5.60122 4.11008 5.80435 4.08943 6.01255 4.07394C6.4188 4.03779 6.82505 4.02747 7.2313 3.99648C7.89146 3.95001 8.54654 3.91903 9.2067 3.90354C10.0294 3.88289 10.8469 3.81576 11.6696 3.75896C13.3149 3.64536 14.9602 3.61954 16.6106 3.56274C17.8548 3.52144 19.1294 3.45431 20.3634 3.26326C20.4192 3.25293 20.4649 3.23228 20.5055 3.20129C20.5309 3.24777 20.5512 3.2994 20.5716 3.34587C20.6223 3.4698 20.6528 3.60405 20.6731 3.73831C20.729 4.05845 20.7341 4.38375 20.7391 4.70389C20.7442 5.40097 20.729 6.09806 20.7493 6.79514C20.795 8.45781 20.861 10.1256 20.9778 11.7831C21.0946 13.4561 21.2825 15.1291 21.4095 16.8021C21.4348 17.1119 21.4552 17.4269 21.4704 17.7419C21.3587 17.7212 21.2368 17.7574 21.1657 17.8762C21.1251 17.9433 20.795 17.9536 20.7087 17.9588C20.4954 17.9743 20.277 17.9639 20.0637 17.9433C19.363 17.8762 18.7536 17.4424 18.1391 17.1274C18.1341 17.1274 18.129 17.1223 18.129 17.1223V17.1687C18.1239 17.1687 18.1239 17.1636 18.1188 17.1636C17.9462 17.0603 17.677 17.1584 17.4891 17.1791C17.088 17.2255 16.6868 17.3288 16.2856 17.3959C15.3512 17.5457 14.4118 17.6231 13.4723 17.6851C11.6188 17.8039 9.77037 17.84 7.91685 17.84C7.55631 17.84 7.60201 18.408 7.95748 18.408C9.74498 18.408 11.5325 18.3719 13.3149 18.2686C14.1985 18.2169 15.077 18.1447 15.9555 18.0259C16.3821 17.9691 16.8036 17.8968 17.2251 17.8142C17.3673 17.7884 17.5094 17.7574 17.6567 17.7367C17.7075 17.7264 17.7583 17.7212 17.8091 17.7109C17.8141 17.7109 17.8192 17.7109 17.8243 17.7109C17.8801 17.902 17.9208 18.1033 17.9462 18.3047C17.2352 18.3873 16.5294 18.4906 15.8286 18.6558C14.9551 18.8624 14.102 19.1412 13.2083 19.2342C12.3399 19.3219 11.4512 19.3013 10.5829 19.26C10.1868 19.2393 9.79068 19.1929 9.39459 19.1774C9.03912 19.1619 8.66334 19.167 8.33834 19.0121C8.01334 18.8572 7.76451 19.3684 8.08951 19.5233C8.41959 19.6782 8.76998 19.7144 9.13053 19.735C9.54186 19.7609 9.94811 19.7918 10.3594 19.8177C11.2583 19.8745 12.1622 19.8899 13.061 19.8228C13.9751 19.7557 14.8434 19.4923 15.727 19.2703C16.4735 19.0844 17.2251 18.9708 17.9817 18.883C17.9817 19.0534 17.9716 19.2238 17.9563 19.3942C17.9411 19.3942 17.9259 19.3942 17.9106 19.3942C17.9055 19.4201 17.9055 19.451 17.9005 19.4769C17.9005 19.5078 17.8954 19.5388 17.8954 19.575C17.6567 19.5646 17.413 19.5905 17.1743 19.6059C16.7833 19.6318 16.3923 19.6473 16.0012 19.6937C15.1938 19.797 14.4016 19.9726 13.5942 20.0655C11.9337 20.2617 10.2426 20.3753 8.57193 20.1998C8.21646 20.1636 8.10474 20.7213 8.46529 20.7574C10.0903 20.9278 11.7255 20.8349 13.3454 20.6593C14.1528 20.5715 14.9501 20.4218 15.7524 20.2979C16.1688 20.2359 16.5852 20.1894 17.0016 20.1739C17.2759 20.1636 17.5602 20.112 17.8344 20.1275C17.738 20.4373 17.6313 20.7574 17.5094 21.0517ZM17.7329 21.9709C17.8141 21.7798 17.8954 21.5836 17.9716 21.3925C18.2966 20.6025 18.52 19.6731 18.5149 18.7643C18.5251 18.7591 18.5302 18.754 18.5403 18.7488C18.5403 18.6145 18.5302 18.4803 18.5098 18.346C18.5048 18.3151 18.5098 18.2892 18.5251 18.2686C18.5098 18.2531 18.4997 18.2376 18.4844 18.2221C18.4743 18.124 18.4591 18.0311 18.4438 17.9329C18.9618 18.2118 19.4848 18.4596 20.0841 18.5061C20.4243 18.5319 20.9118 18.5732 21.2774 18.4235C21.2723 18.4338 21.2723 18.4441 21.2673 18.4545C20.9473 18.8676 20.5919 19.2393 20.2212 19.6059C19.7895 20.0294 19.3579 20.4631 18.9161 20.8762C18.5251 21.248 18.1188 21.5991 17.7329 21.9709ZM22.5266 21.4958C22.4809 21.6249 22.1712 21.6197 22.0645 21.6404C21.572 21.723 21.0794 21.7695 20.5868 21.816C20.1399 21.8573 19.7032 21.9192 19.2614 22.0277C18.9161 22.1103 18.5809 22.1981 18.2305 22.2549C18.6165 21.8934 19.0177 21.5526 19.3985 21.1963C19.82 20.7987 20.2262 20.3856 20.6427 19.9829C21.0845 19.5543 21.511 19.1051 21.8665 18.5939C21.9376 18.4958 21.9427 18.3873 21.9071 18.3047H22.0493C21.9782 16.7815 21.8259 15.2582 21.6887 13.7401C21.5364 12.0723 21.4552 10.4045 21.379 8.73148C21.3384 7.90014 21.3028 7.06881 21.2825 6.23747C21.2673 5.5817 21.3028 4.92593 21.2774 4.27015C21.2673 3.95518 21.2266 3.6402 21.1505 3.33555C21.0895 3.08253 20.9727 2.75206 20.7137 2.65912C20.6122 2.62298 20.5208 2.64363 20.4497 2.69527C20.4141 2.67977 20.3684 2.67461 20.3177 2.68494C19.0481 2.88115 17.7481 2.94312 16.4684 2.98442C14.7876 3.04122 13.1067 3.07221 11.4258 3.19097C9.97857 3.29424 8.53639 3.33038 7.08912 3.42333C6.83013 3.43882 6.57115 3.45431 6.30708 3.4698C6.30708 3.41816 6.30201 3.36653 6.29693 3.31489C6.28677 3.26326 6.2563 3.16515 6.26138 3.10319C6.27154 3.10319 6.28677 3.10319 6.30201 3.10319C6.36802 3.11351 6.42896 3.13417 6.49498 3.14966C6.62701 3.18064 6.74888 3.18064 6.88599 3.17031C7.19068 3.15482 7.49029 3.03606 7.79498 3.01024C8.15045 2.97926 8.50592 2.95861 8.86139 2.94312C10.2274 2.87599 11.5985 2.91213 12.9696 2.85017C14.3407 2.78821 15.6966 2.53519 17.0626 2.40611C18.388 2.28218 19.7286 2.29251 21.0591 2.22538C21.1048 2.25636 21.1555 2.27185 21.2165 2.25636C21.2469 2.55585 21.2825 2.8605 21.3282 3.15999C21.3891 3.57307 21.5059 3.97583 21.5669 4.38375C21.6227 4.76069 21.6227 5.13763 21.6735 5.51457C21.7243 5.93799 21.8208 6.35623 21.8766 6.77965C22.1102 8.44232 22.0493 10.1153 22.1509 11.7883C22.2473 13.4768 22.4098 15.1601 22.4149 16.8538C22.4149 17.649 22.4352 18.439 22.4505 19.2342C22.4555 19.5853 22.4809 19.9364 22.5216 20.2824C22.552 20.5354 22.4962 20.7677 22.5876 21.0001C22.5622 21.0414 22.547 21.0931 22.547 21.155C22.5419 21.2635 22.5622 21.3977 22.5266 21.4958Z" fill="#010101"/>
<path d="M9.52151 4.90029C9.48088 4.53885 8.92229 4.58015 8.96291 4.9416C9.00354 5.28756 8.89689 5.66967 8.85627 6.01563C8.82072 6.28413 8.81565 6.5578 8.79025 6.82631C8.58205 6.56813 8.35861 6.32544 8.19103 6.03628C7.95236 5.63352 7.76955 5.112 7.39885 4.81251C7.3176 4.74539 7.23127 4.73506 7.1551 4.75571C7.00275 4.66793 6.77424 4.70924 6.73869 4.93644C6.65744 5.4528 6.8047 5.99497 6.86056 6.50616C6.91135 6.98121 6.94181 7.46659 6.94181 7.9468C6.94181 8.31341 7.50041 8.26694 7.50041 7.90549V7.86418C7.50041 7.85902 7.50041 7.85386 7.50041 7.84869C7.50041 7.43044 7.47502 7.00703 7.43439 6.58878C7.39885 6.24799 7.30744 5.87621 7.28205 5.51476C7.44963 5.76261 7.5715 6.06726 7.70861 6.30995C7.98283 6.79016 8.44494 7.13612 8.68869 7.63699C8.81565 7.90033 9.13557 7.87451 9.22697 7.59568C9.38947 7.09481 9.36408 6.56296 9.4301 6.04661C9.46057 5.67483 9.56213 5.27207 9.52151 4.90029ZM12.5379 7.01219C11.8574 6.98638 11.1871 7.12579 10.5117 7.14645C10.527 6.8418 10.5168 6.52682 10.4965 6.22217C10.5219 6.2325 10.5524 6.23766 10.5828 6.23766C10.9129 6.24282 11.2328 6.25315 11.5629 6.2325C11.7965 6.217 12.0758 6.12922 12.3043 6.19635C12.6496 6.30479 12.7512 5.74196 12.411 5.63868C12.1723 5.56639 11.8828 5.62836 11.6391 5.65418C11.2735 5.69548 10.9078 5.67483 10.5422 5.66967C10.5168 5.66967 10.4914 5.67483 10.4711 5.67483C10.466 5.47861 10.466 5.21011 10.4102 4.99324C10.7453 4.88997 11.1719 4.96226 11.5121 4.95709C11.7813 4.95709 12.1774 5.00357 12.411 4.83833C12.7106 4.63179 12.3957 4.1619 12.0961 4.36845C12.1571 4.32714 12.0453 4.36845 12.025 4.36845C11.9489 4.37877 11.8727 4.37877 11.7965 4.38394C11.6391 4.3891 11.4817 4.38394 11.3242 4.39427C10.9332 4.42525 10.5371 4.32714 10.1563 4.47172C10.0903 4.49754 10.0446 4.53885 10.0141 4.59048C9.8008 4.60081 9.71447 4.86931 9.82111 5.03971C9.82619 5.05004 9.82619 5.0552 9.82619 5.0552C9.82619 5.0552 9.82619 5.06037 9.83127 5.07586C9.84651 5.16364 9.85666 5.24625 9.86682 5.33403C9.89221 5.57156 9.90744 5.80392 9.9176 6.04144C9.92776 6.28413 9.93791 6.53198 9.94299 6.77467C9.94299 6.87278 9.94299 6.97089 9.94299 7.06899C9.94299 7.1103 9.94299 7.15677 9.94299 7.19808C9.94299 7.21357 9.94299 7.21874 9.94299 7.22906C9.94299 7.2239 9.94299 7.2239 9.94299 7.23423C9.92776 7.41495 10.0547 7.53371 10.1867 7.55953C10.2324 7.64731 10.3188 7.70928 10.4406 7.70928C11.1567 7.70411 11.8574 7.54404 12.5735 7.56986C12.9391 7.59568 12.8934 7.02768 12.5379 7.01219ZM16.1332 4.7299C15.9707 4.98291 16.0012 5.31854 15.9809 5.6077C15.9606 5.8349 15.925 6.05693 15.8793 6.28413C15.661 5.8349 15.4731 5.36502 15.0821 5.02422C14.9754 4.93128 14.7774 4.92611 14.686 5.05004C14.4879 5.32887 14.4625 5.66967 14.4168 6.0053C14.3864 6.22217 14.3305 6.43387 14.2746 6.64042C14.1528 6.3874 14.0664 6.11373 13.975 5.85555C13.8176 5.39083 13.4977 4.93128 13.5129 4.42008C13.5282 4.05347 12.9696 4.09994 12.9543 4.46139C12.934 5.02422 13.2692 5.52509 13.4418 6.04144C13.6196 6.56813 13.8125 7.09997 14.1985 7.51306C14.3508 7.67829 14.6149 7.5492 14.6555 7.35299C14.7367 6.97605 14.8535 6.60944 14.9399 6.2325C14.9703 6.09824 14.9703 5.93301 14.9907 5.77294C15.3004 6.22217 15.4426 6.785 15.7778 7.21874C15.92 7.40463 16.245 7.37364 16.2856 7.11547C16.3516 6.69722 16.4379 6.28413 16.509 5.87105C16.5547 5.60254 16.4836 5.22044 16.636 4.98808C16.834 4.6731 16.3313 4.42525 16.1332 4.7299ZM19.1243 5.49927C18.9567 5.24625 18.7231 5.10684 18.4336 5.03455C18.2 4.97775 17.9309 5.04487 17.7125 4.96742C17.6364 4.9416 17.9766 4.64212 18.0172 4.61114C18.2051 4.48721 18.5911 4.43041 18.7942 4.51819C19.1243 4.65761 19.3731 4.15158 19.043 4.007C18.5707 3.80562 17.9207 3.92954 17.5297 4.26518C17.1692 4.57499 16.9 5.26691 17.5145 5.48378C17.7582 5.57156 18.0121 5.50443 18.2559 5.5664C18.5606 5.64385 18.7485 5.82457 18.7789 6.15504C18.8399 6.75402 17.9766 6.79016 17.5754 6.79016C17.2149 6.79532 17.2606 7.35815 17.616 7.35815C18.0782 7.35299 18.6317 7.29103 18.9973 6.97089C19.4391 6.6146 19.4289 5.95366 19.1243 5.49927ZM13.4926 10.0948C13.4418 9.54234 13.3809 8.96402 13.1981 8.4425C13.0965 8.15851 12.7258 8.23596 12.6598 8.46316C11.7559 8.47348 10.8469 8.53028 9.94807 8.62323C9.40979 8.68003 8.87658 8.79879 8.3383 8.87108C7.93713 8.92788 7.51564 8.92271 7.1551 9.12409C7.1297 9.13958 7.10939 9.15507 7.09416 9.17057C6.9215 9.12409 6.71838 9.22736 6.76408 9.4494C6.86056 9.90896 6.96213 10.3737 7.084 10.8229C7.13986 11.0191 7.2008 11.2153 7.25158 11.4116C7.30236 11.6078 7.28713 11.8298 7.3176 12.0312C7.42931 12.8057 8.14025 12.7902 8.74455 12.6818C9.13049 12.6147 9.52658 12.625 9.92268 12.6147C10.268 12.6043 10.6082 12.5888 10.9535 12.6198C11.3598 12.656 12.0352 12.8006 12.4313 12.5527C12.4719 12.5579 12.5125 12.5579 12.5582 12.5475C12.8782 12.4701 13.1778 12.3668 13.4672 12.2067C13.5586 12.1551 13.5891 12.0467 13.5891 11.9486C13.584 11.3341 13.5485 10.7145 13.4926 10.0948ZM12.4567 12.0002C12.3602 11.9537 12.2383 11.9641 12.1469 12.0673C12.0961 12.1241 11.8016 12.1138 11.6899 12.1138C11.4461 12.1138 11.1973 12.0828 10.9535 12.057C10.659 12.0312 10.3645 12.0415 10.0699 12.0467C9.69416 12.057 9.29807 12.0312 8.92229 12.0828C8.66838 12.1138 8.41955 12.1809 8.16057 12.1861C7.84572 12.1964 7.86603 11.9434 7.84572 11.6801C7.82033 11.3186 7.71369 10.983 7.61213 10.637C7.51564 10.3065 7.43947 9.96575 7.36838 9.63012C7.40392 9.62496 7.43439 9.61463 7.46994 9.59398C7.61721 9.51136 7.80002 9.5062 7.96252 9.49071C8.17072 9.47005 8.36877 9.43907 8.57697 9.40809C9.07971 9.3358 9.57736 9.22736 10.0801 9.17573C10.9789 9.08278 11.8828 9.02598 12.7867 9.02082C12.8782 9.41842 12.9086 9.8315 12.9492 10.2291C13 10.7506 13.0254 11.2773 13.0305 11.7988C12.8426 11.8918 12.6496 11.9486 12.4567 12.0002ZM18.9211 8.15851C18.9211 8.14818 18.9161 8.14301 18.9161 8.13269C18.8856 8.0036 18.7485 7.9468 18.6317 7.94164C17.8953 7.91582 17.1743 8.08105 16.4481 8.18949C15.6813 8.30825 14.9043 8.34956 14.1274 8.35472C13.7668 8.35472 13.8125 8.92271 14.168 8.92271C14.9145 8.92271 15.6559 8.87624 16.3922 8.77297C17.0778 8.68003 17.7481 8.51996 18.4387 8.50963C18.5453 8.57675 18.7078 8.58708 18.8145 8.47865L18.8094 8.48897C18.9262 8.40636 18.9567 8.28759 18.9211 8.15851ZM18.7332 8.8401C17.9918 8.91239 17.2707 9.1086 16.5344 9.18606C15.8996 9.25318 15.2801 9.32031 14.6403 9.32547C14.2797 9.32547 14.3254 9.89346 14.6809 9.89346C15.2903 9.89346 15.8996 9.85732 16.4989 9.76954C17.1895 9.66627 17.875 9.52169 18.5657 9.43907C18.5961 9.4494 18.6317 9.45456 18.6723 9.4494C18.7637 9.43907 18.8297 9.41325 18.911 9.36678C19.1547 9.21187 19.0024 8.81428 18.7332 8.8401ZM18.9719 9.93994C18.2153 9.91412 17.484 10.1052 16.7375 10.1826C16.0266 10.2549 15.3258 10.4821 14.6047 10.4563C14.2442 10.446 14.2899 11.0088 14.6453 11.0243C15.3664 11.0501 16.0672 10.8229 16.7782 10.7506C17.4485 10.6783 18.1086 10.5234 18.7789 10.5079C18.85 10.5441 18.9364 10.5492 19.0227 10.5079C19.3782 10.4666 19.3172 9.95026 18.9719 9.93994ZM19.4188 11.014C19.1496 10.9727 18.8703 11.0501 18.6012 11.0759C18.1543 11.1172 17.7125 11.1689 17.2707 11.236C16.3008 11.3857 15.3512 11.5561 14.366 11.5613C14.0055 11.5613 14.0512 12.1293 14.4067 12.1293C15.3207 12.1241 16.2196 11.995 17.1184 11.835C17.5551 11.7575 17.9969 11.6955 18.4438 11.6542C18.5961 11.6387 18.7485 11.6336 18.9008 11.6129C19.0278 11.5974 19.2004 11.5561 19.3121 11.5716C19.6676 11.6284 19.7743 11.0708 19.4188 11.014ZM18.9719 12.2481H18.8043C18.718 12.2481 18.6571 12.279 18.6164 12.3307C18.3422 12.3668 18.0629 12.3462 17.7887 12.3875C17.3266 12.4598 16.8645 12.5062 16.4024 12.5734C15.4274 12.7231 14.4473 12.816 13.4672 12.909C11.5578 13.0897 9.64846 13.3479 7.72892 13.3531C7.36838 13.3531 7.41408 13.921 7.76955 13.921C9.71955 13.9159 11.6645 13.6577 13.6043 13.4718C14.5844 13.3789 15.5645 13.2808 16.5395 13.131C16.9914 13.0639 17.4485 13.0174 17.9004 12.9451C18.2965 12.8832 18.6926 12.94 19.0786 12.8057C19.3934 12.687 19.2766 12.2481 18.9719 12.2481ZM19.4797 13.1413H19.4137C19.4036 13.1413 19.3934 13.1413 19.3782 13.1413C18.4641 13.1568 17.5551 13.3169 16.6461 13.4253C15.6965 13.5441 14.7469 13.699 13.8024 13.8591C12.8629 14.014 11.9235 14.1741 10.9739 14.2618C9.99885 14.3496 9.01369 14.3754 8.03361 14.3806C7.67306 14.3806 7.71877 14.9486 8.07424 14.9486C9.02385 14.9486 9.96838 14.9176 10.9129 14.8402C11.8625 14.7627 12.802 14.6026 13.7414 14.4426C14.686 14.2825 15.6305 14.1276 16.5801 14.0088C17.55 13.8849 18.5301 13.7145 19.5153 13.7093C19.8809 13.7042 19.8352 13.1413 19.4797 13.1413ZM18.8653 14.551H18.8043C18.7891 14.551 18.7739 14.551 18.7637 14.5562C18.4032 14.5768 18.0782 14.6853 17.7227 14.7575C17.2606 14.8505 16.7832 14.8711 16.311 14.9331C15.3309 15.057 14.3457 15.1551 13.3657 15.2532C12.4414 15.3462 11.5121 15.4753 10.5828 15.5269C9.65354 15.5786 8.72932 15.4701 7.8051 15.5166C7.44455 15.5372 7.49025 16.1001 7.84572 16.0846C8.73947 16.0381 9.63322 16.1362 10.5321 16.1001C11.4918 16.0588 12.4516 15.9193 13.4114 15.8212C14.361 15.7283 15.3106 15.6302 16.2602 15.5166C16.7325 15.4598 17.2047 15.4236 17.677 15.3462C18.0985 15.2791 18.4844 15.1242 18.9161 15.1242C19.2664 15.119 19.2207 14.551 18.8653 14.551ZM19.495 15.6147C19.5864 15.5218 19.5965 15.5579 19.495 15.5682C19.4239 15.5786 19.3477 15.5837 19.2766 15.5889C19.1395 15.5992 19.0024 15.6044 18.8703 15.6354C18.3828 15.7489 17.8903 15.8574 17.3926 15.9193C16.8797 15.9865 16.3567 15.9968 15.8438 16.0329C15.2953 16.0691 14.752 16.1465 14.2137 16.2188C13.1676 16.3634 12.1317 16.5596 11.0754 16.6009C10.5676 16.6216 10.0598 16.6113 9.55197 16.6113C9.07971 16.6113 8.5465 16.6836 8.08439 16.5803C7.734 16.5028 7.62736 17.0605 7.97775 17.1379C8.43986 17.2361 8.93752 17.1793 9.40471 17.1793C9.94299 17.1793 10.4813 17.1844 11.0246 17.1689C12.1418 17.1379 13.2438 16.9211 14.3559 16.7713C14.8992 16.699 15.4426 16.6268 15.986 16.5906C16.5344 16.5545 17.0879 16.5338 17.6364 16.4564C18.1188 16.3892 18.586 16.2292 19.0633 16.1724C19.3325 16.1362 19.7184 16.1982 19.9215 15.9865C20.1653 15.7283 19.7438 15.3514 19.495 15.6147Z" fill="#010101"/>
</svg>
