<svg width="25" height="25" viewBox="0 0 25 25" fill="none" xmlns="http://www.w3.org/2000/svg">
<path d="M11.6667 2.5C10.7501 2.5 10.0001 3.25 10.0001 4.16667V5H15.0001V4.16667C15.0001 3.25 14.2501 2.5 13.3334 2.5H11.6667ZM9.85685 6.66667C9.41519 6.66667 8.99097 6.84245 8.67847 7.15495L7.15666 8.67838C6.84332 8.99088 6.66675 9.41427 6.66675 9.85677V10.8333C6.66675 11.3342 6.89129 11.7775 7.24129 12.0833C6.89129 12.3892 6.66675 12.8325 6.66675 13.3333V15.8333C6.66675 16.3342 6.89129 16.7775 7.24129 17.0833C6.89129 17.3892 6.66675 17.8325 6.66675 18.3333V20.8333C6.66675 21.7542 7.41258 22.5 8.33341 22.5H16.6667C17.5876 22.5 18.3334 21.7542 18.3334 20.8333V19.1667C18.3334 18.7067 17.9601 18.3333 17.5001 18.3333H10.0001C9.54008 18.3333 9.16675 17.96 9.16675 17.5C9.16675 17.04 9.54008 16.6667 10.0001 16.6667H17.5001C17.9601 16.6667 18.3334 16.2933 18.3334 15.8333V14.1667C18.3334 13.7067 17.9601 13.3333 17.5001 13.3333H10.0001C9.54008 13.3333 9.16675 12.96 9.16675 12.5C9.16675 12.04 9.54008 11.6667 10.0001 11.6667H17.5001C17.9601 11.6667 18.3334 11.2933 18.3334 10.8333V9.85677C18.3334 9.4151 18.1576 8.99088 17.8451 8.67838L16.3217 7.15495C16.0092 6.84245 15.585 6.66667 15.1433 6.66667H9.85685Z" fill="black"/>
</svg>
