<svg width="15" height="15" viewBox="0 0 15 15" fill="none" xmlns="http://www.w3.org/2000/svg">
<path d="M7.49995 0.299988C4.85386 0.299988 2.69995 2.45389 2.69995 5.09999C2.69995 9.33397 7.08862 14.3836 7.27495 14.5969C7.33237 14.6625 7.41323 14.7 7.49995 14.7C7.59253 14.6941 7.66753 14.6625 7.72495 14.5969C7.91128 14.3801 12.3 9.24374 12.3 5.09999C12.3 2.45389 10.146 0.299988 7.49995 0.299988ZM7.49995 3.59999C8.4937 3.59999 9.29995 4.40624 9.29995 5.39999C9.29995 6.39374 8.4937 7.19999 7.49995 7.19999C6.5062 7.19999 5.69995 6.39374 5.69995 5.39999C5.69995 4.40624 6.5062 3.59999 7.49995 3.59999Z" fill="#FCFAF7"/>
</svg>
