<svg width="16" height="16" viewBox="0 0 16 16" fill="none" xmlns="http://www.w3.org/2000/svg">
<path d="M6.4862 1.60001C3.79357 1.60001 1.60028 3.7933 1.60028 6.48592C1.60028 9.17855 3.79357 11.3718 6.4862 11.3718C7.65711 11.3718 8.73244 10.956 9.5752 10.2658L12.4924 13.1831C12.5375 13.23 12.5914 13.2674 12.6511 13.2932C12.7107 13.319 12.7749 13.3326 12.8399 13.3333C12.9049 13.3339 12.9694 13.3216 13.0296 13.297C13.0898 13.2725 13.1445 13.2361 13.1904 13.1902C13.2364 13.1442 13.2727 13.0895 13.2973 13.0293C13.3219 12.9692 13.3342 12.9047 13.3335 12.8397C13.3329 12.7747 13.3192 12.7105 13.2935 12.6508C13.2677 12.5911 13.2302 12.5372 13.1833 12.4922L10.2661 9.57493C10.9563 8.73217 11.3721 7.65684 11.3721 6.48592C11.3721 3.7933 9.17883 1.60001 6.4862 1.60001ZM6.4862 2.57719C8.65072 2.57719 10.3949 4.3214 10.3949 6.48592C10.3949 8.65044 8.65072 10.3947 6.4862 10.3947C4.32168 10.3947 2.57746 8.65044 2.57746 6.48592C2.57746 4.3214 4.32168 2.57719 6.4862 2.57719Z" fill="black"/>
</svg>
