<svg width="20" height="20" viewBox="0 0 20 20" fill="none" xmlns="http://www.w3.org/2000/svg">
<path d="M18.3332 9.99996C18.3332 14.6016 14.6015 18.3333 9.99984 18.3333C5.39817 18.3333 1.6665 14.6016 1.6665 9.99996C1.6665 5.39829 5.39817 1.66663 9.99984 1.66663C14.6015 1.66663 18.3332 5.39829 18.3332 9.99996Z" fill="#147377"/>
<path d="M6.10058 9.37329H6.78891C7.33433 9.37329 7.60766 9.09996 7.60766 8.54954C7.60766 8.33621 7.54266 8.16204 7.41225 8.02704C7.28183 7.89204 7.09808 7.82371 6.86225 7.82371C6.6685 7.82371 6.501 7.88246 6.35766 7.99788C6.21433 8.11329 6.14266 8.25663 6.14266 8.42913H4.68266C4.68266 8.08746 4.77558 7.78454 4.95933 7.51621C5.14475 7.24913 5.40225 7.04079 5.72933 6.89121C6.05641 6.74163 6.41766 6.66663 6.81016 6.66663C7.51183 6.66663 8.0635 6.83121 8.46558 7.16163C8.86766 7.49038 9.06766 7.94288 9.06766 8.51913C9.06766 8.79913 8.98475 9.06288 8.81683 9.30996C8.65225 9.55746 8.40975 9.75913 8.09266 9.91371C8.42808 10.0375 8.69016 10.2279 8.88058 10.48C9.071 10.7358 9.16683 11.0483 9.16683 11.4225C9.16683 12.002 8.95016 12.4641 8.51725 12.8125C8.08266 13.1591 7.51475 13.3333 6.81016 13.3333C6.39683 13.3333 6.01433 13.252 5.661 13.0908C5.306 12.9279 5.03933 12.7033 4.85683 12.4187C4.67475 12.1304 4.5835 11.805 4.5835 11.4404H6.05141C6.05141 11.6391 6.12975 11.8116 6.286 11.9562C6.44225 12.1029 6.63433 12.1741 6.86225 12.1741C7.11933 12.1741 7.32433 12.1008 7.47766 11.9545C7.63058 11.8079 7.70725 11.6191 7.70725 11.3912C7.70725 11.0641 7.62891 10.8329 7.46975 10.6962C7.31058 10.5595 7.09058 10.4912 6.81225 10.4912H6.101L6.10058 9.37329Z" fill="white"/>
<path d="M14.0087 6.66663V7.84663H13.9437C13.392 7.84663 12.9395 7.98163 12.5828 8.25038C12.2278 8.51913 12.0099 8.89163 11.9287 9.37038C12.2624 9.03829 12.6824 8.87079 13.1899 8.87079C13.7416 8.87079 14.1812 9.07579 14.5082 9.48621C14.8353 9.89663 14.9999 10.4329 14.9999 11.0987C14.9999 11.5104 14.9041 11.8883 14.7132 12.2333C14.5212 12.5783 14.2541 12.8487 13.9107 13.042C13.5674 13.2375 13.1866 13.3333 12.7687 13.3333C12.3162 13.3333 11.9124 13.2291 11.5562 13.0191C11.1999 12.8108 10.9228 12.5112 10.7228 12.1225C10.5241 11.7333 10.4216 11.2858 10.417 10.7766V10.1762C10.417 9.50871 10.5587 8.90829 10.8403 8.37621C11.122 7.84246 11.5241 7.42413 12.0466 7.12121C12.5707 6.81829 13.1499 6.66704 13.7882 6.66704L14.0087 6.66663ZM12.6774 10.0291C12.482 10.0291 12.3195 10.0745 12.1857 10.1658C12.0553 10.2587 11.9578 10.3708 11.8928 10.5029V10.952C11.8928 11.7675 12.1728 12.1762 12.7312 12.1762C12.9557 12.1762 13.1428 12.0737 13.2945 11.8704C13.4441 11.6654 13.5191 11.4112 13.5191 11.102C13.5191 10.7862 13.4424 10.5275 13.2895 10.3291C13.1345 10.1287 12.9312 10.0291 12.6774 10.0291Z" fill="white"/>
</svg>
