<svg width="15" height="15" viewBox="0 0 15 15" fill="none" xmlns="http://www.w3.org/2000/svg">
<g clip-path="url(#clip0_1_1350)">
<path d="M7.5 0.294312C4.5915 0.294312 1.5 1.11954 1.5 2.64874C1.5 4.17794 4.5915 5.00317 7.5 5.00317C10.4085 5.00317 13.5 4.17794 13.5 2.64874C13.5 1.11954 10.4085 0.294312 7.5 0.294312ZM6.89941 1.47153H7.04941C7.62841 1.47153 8.09941 1.93358 8.09941 2.50159V2.79589C8.09941 3.3639 7.62841 3.82596 7.04941 3.82596H6.89941C6.28201 3.82596 4.52518 3.54343 4.45078 3.53165C3.97108 3.47515 3.6 3.09548 3.6 2.64932V2.64817C3.6 2.2023 3.97107 1.82208 4.46367 1.76411C4.52247 1.75381 6.24421 1.47153 6.89941 1.47153ZM6.89941 2.06013C6.61471 2.06013 6.082 2.12266 5.5957 2.18947C5.6521 2.30719 5.69941 2.46009 5.69941 2.64874C5.69941 2.83621 5.65268 2.98829 5.59688 3.10572C6.09188 3.17341 6.62971 3.23735 6.89941 3.23735H7.04941C7.29751 3.23735 7.49941 3.03928 7.49941 2.79589V2.50159C7.49911 2.2582 7.29751 2.06013 7.04941 2.06013H6.89941ZM1.8 4.23407V11.302C1.6008 11.5456 1.5 11.8025 1.5 12.0665C1.5 13.5957 4.5915 14.4209 7.5 14.4209C10.4085 14.4209 13.5 13.5957 13.5 12.0665C13.5 11.8025 13.3992 11.5456 13.2 11.302V4.23407C11.9736 5.15848 9.6798 5.59178 7.5 5.59178C5.3202 5.59178 3.0264 5.15848 1.8 4.23407ZM7.5 6.769C8.6928 6.769 9.9 7.07713 9.9 7.3576V8.53482C10.2348 8.61958 10.5 8.75201 10.5 8.86591L9.975 12.0665C9.9 12.3608 8.6928 12.6551 7.5 12.6551C6.3072 12.6551 5.1 12.3608 5.025 12.0665L4.5 8.86591C4.5 8.75201 4.7652 8.61958 5.1 8.53482V7.3576C5.1 7.07713 6.3072 6.769 7.5 6.769ZM6 9.41773C5.96025 9.41718 5.92078 9.42438 5.88389 9.43893C5.847 9.45347 5.81342 9.47506 5.78511 9.50244C5.7568 9.52983 5.73432 9.56246 5.71897 9.59844C5.70363 9.63442 5.69573 9.67303 5.69573 9.71203C5.69573 9.75104 5.70363 9.78965 5.71897 9.82563C5.73432 9.86161 5.7568 9.89424 5.78511 9.92162C5.81342 9.94901 5.847 9.9706 5.88389 9.98514C5.92078 9.99968 5.96025 10.0069 6 10.0063H9C9.03975 10.0069 9.07922 9.99968 9.11611 9.98514C9.153 9.9706 9.18658 9.94901 9.21489 9.92162C9.2432 9.89424 9.26568 9.86161 9.28103 9.82563C9.29637 9.78965 9.30427 9.75104 9.30427 9.71203C9.30427 9.67303 9.29637 9.63442 9.28103 9.59844C9.26568 9.56246 9.2432 9.52983 9.21489 9.50244C9.18658 9.47506 9.153 9.45347 9.11611 9.43893C9.07922 9.42438 9.03975 9.41718 9 9.41773H6ZM6.6 10.5949C6.56025 10.5944 6.52078 10.6016 6.48389 10.6161C6.447 10.6307 6.41342 10.6523 6.38511 10.6797C6.3568 10.707 6.33432 10.7397 6.31897 10.7757C6.30363 10.8116 6.29573 10.8502 6.29573 10.8892C6.29573 10.9283 6.30363 10.9669 6.31897 11.0028C6.33432 11.0388 6.3568 11.0715 6.38511 11.0988C6.41342 11.1262 6.447 11.1478 6.48389 11.1624C6.52078 11.1769 6.56025 11.1841 6.6 11.1836H8.4C8.43975 11.1841 8.47922 11.1769 8.51611 11.1624C8.553 11.1478 8.58658 11.1262 8.61489 11.0988C8.6432 11.0715 8.66568 11.0388 8.68103 11.0028C8.69637 10.9669 8.70427 10.9283 8.70427 10.8892C8.70427 10.8502 8.69637 10.8116 8.68103 10.7757C8.66568 10.7397 8.6432 10.707 8.61489 10.6797C8.58658 10.6523 8.553 10.6307 8.51611 10.6161C8.47922 10.6016 8.43975 10.5944 8.4 10.5949H6.6Z" fill="#FCFAF7"/>
</g>
<defs>
<clipPath id="clip0_1_1350">
<rect width="15" height="14.7152" fill="white"/>
</clipPath>
</defs>
</svg>
