<svg width="31" height="31" viewBox="0 0 31 31" fill="none" xmlns="http://www.w3.org/2000/svg">
<path d="M25.6346 0C23.9906 0 22.6539 1.33669 22.6539 2.98077C22.6539 3.13446 22.6678 3.27885 22.6911 3.42788C15.486 1.2482 12.4075 10.0368 10.0974 11.7368C7.98289 13.2924 2.25422 11.7368 1.45314 15.3882C0.0885068 17.7775 4.37336 22.8169 11.0661 26.7524C11.7554 28.5409 13.4694 29.8077 15.5 29.8077C15.9797 29.8077 16.4408 29.7145 16.8786 29.5841C19.3378 30.511 21.5733 31 23.2873 31C24.8429 31 25.97 30.5808 26.4543 29.7332C27.6746 28.2847 28.0192 26.8549 25.7464 23.1382C23.4782 19.4309 32.2203 11.0242 26.7897 5.73798C27.8609 5.28621 28.6154 4.21499 28.6154 2.98077C28.6154 1.33669 27.2787 0 25.6346 0ZM4.62021 16.0589C7.30756 16.0589 11.4573 17.5027 15.5 19.8221C15.8214 20.0084 16.0915 20.1947 16.3942 20.381C16.1055 20.3251 15.8027 20.2692 15.5 20.2692C13.1014 20.2692 11.1453 22.0297 10.8053 24.3305C5.23965 20.7629 2.84572 17.186 3.09256 16.357C3.16243 16.2825 3.6142 16.0589 4.62021 16.0589ZM19.5241 22.4675C23.3758 25.4204 25.0245 28.0705 24.8149 28.7644C24.7451 28.8389 24.2979 29.0625 23.2873 29.0625C22.0996 29.0625 20.6325 28.7924 19.0024 28.28C19.7895 27.4277 20.2692 26.2867 20.2692 25.0385C20.2692 24.0977 19.9945 23.2081 19.5241 22.4675Z" fill="#F1BC00"/>
</svg>
