<svg width="44" height="44" viewBox="0 0 44 44" fill="none" xmlns="http://www.w3.org/2000/svg">
<g clip-path="url(#clip0_1_4943)">
<g clip-path="url(#clip1_1_4943)">
<path d="M22.3106 0.892438C13.6586 0.892438 4.46213 3.3948 4.46213 8.03184C4.46213 12.6689 13.6586 15.1712 22.3106 15.1712C30.9627 15.1712 40.1592 12.6689 40.1592 8.03184C40.1592 3.3948 30.9627 0.892438 22.3106 0.892438ZM20.524 4.46214H20.9703C22.6926 4.46214 24.0938 5.86325 24.0938 7.58563V8.47806C24.0938 10.2004 22.6926 11.6015 20.9703 11.6015H20.524C18.6874 11.6015 13.4613 10.7448 13.24 10.7091C11.813 10.5378 10.7091 9.3865 10.7091 8.03359V8.0301C10.7091 6.67808 11.813 5.52515 13.2783 5.34934C13.4532 5.3181 18.575 4.46214 20.524 4.46214ZM20.524 6.24699C19.6771 6.24699 18.0925 6.43659 16.6458 6.63917C16.8136 6.99614 16.9543 7.4598 16.9543 8.03184C16.9543 8.60032 16.8153 9.06147 16.6493 9.41754C18.1218 9.6228 19.7218 9.81669 20.524 9.81669H20.9703C21.7083 9.81669 22.3089 9.21609 22.3089 8.47806V7.58563C22.308 6.84759 21.7083 6.24699 20.9703 6.24699H20.524ZM5.35455 12.8391V34.2713C4.76198 35.0102 4.46213 35.789 4.46213 36.5895C4.46213 41.2265 13.6586 43.7289 22.3106 43.7289C30.9627 43.7289 40.1592 41.2265 40.1592 36.5895C40.1592 35.789 39.8593 35.0102 39.2667 34.2713V12.8391C35.6185 15.6422 28.795 16.9561 22.3106 16.9561C15.8263 16.9561 9.00279 15.6422 5.35455 12.8391ZM22.3106 20.5258C25.8589 20.5258 29.45 21.4602 29.45 22.3107V25.8804C30.446 26.1374 31.2349 26.539 31.2349 26.8843L29.6732 36.5895C29.45 37.4819 25.8589 38.3743 22.3106 38.3743C18.7624 38.3743 15.1712 37.4819 14.9481 36.5895L13.3864 26.8843C13.3864 26.539 14.1753 26.1374 15.1712 25.8804V22.3107C15.1712 21.4602 18.7624 20.5258 22.3106 20.5258ZM17.8485 28.5576C17.7303 28.556 17.6128 28.5778 17.5031 28.6219C17.3934 28.666 17.2935 28.7315 17.2093 28.8145C17.125 28.8975 17.0582 28.9965 17.0125 29.1056C16.9669 29.2147 16.9434 29.3318 16.9434 29.4501C16.9434 29.5683 16.9669 29.6854 17.0125 29.7945C17.0582 29.9036 17.125 30.0026 17.2093 30.0856C17.2935 30.1686 17.3934 30.2341 17.5031 30.2782C17.6128 30.3223 17.7303 30.3442 17.8485 30.3425H26.7728C26.891 30.3442 27.0084 30.3223 27.1182 30.2782C27.2279 30.2341 27.3278 30.1686 27.412 30.0856C27.4962 30.0026 27.5631 29.9036 27.6088 29.7945C27.6544 29.6854 27.6779 29.5683 27.6779 29.4501C27.6779 29.3318 27.6544 29.2147 27.6088 29.1056C27.5631 28.9965 27.4962 28.8975 27.412 28.8145C27.3278 28.7315 27.2279 28.666 27.1182 28.6219C27.0084 28.5778 26.891 28.556 26.7728 28.5576H17.8485ZM19.6334 32.1273C19.5151 32.1257 19.3977 32.1475 19.288 32.1916C19.1782 32.2357 19.0783 32.3012 18.9941 32.3842C18.9099 32.4672 18.843 32.5662 18.7974 32.6753C18.7517 32.7844 18.7282 32.9015 18.7282 33.0198C18.7282 33.138 18.7517 33.2551 18.7974 33.3642C18.843 33.4733 18.9099 33.5723 18.9941 33.6553C19.0783 33.7383 19.1782 33.8038 19.288 33.8479C19.3977 33.892 19.5151 33.9139 19.6334 33.9122H24.9879C25.1062 33.9139 25.2236 33.892 25.3333 33.8479C25.4431 33.8038 25.5429 33.7383 25.6272 33.6553C25.7114 33.5723 25.7783 33.4733 25.8239 33.3642C25.8695 33.2551 25.8931 33.138 25.8931 33.0198C25.8931 32.9015 25.8695 32.7844 25.8239 32.6753C25.7783 32.5662 25.7114 32.4672 25.6272 32.3842C25.5429 32.3012 25.4431 32.2357 25.3333 32.1916C25.2236 32.1475 25.1062 32.1257 24.9879 32.1273H19.6334Z" fill="black"/>
</g>
</g>
<defs>
<clipPath id="clip0_1_4943">
<rect width="43.39" height="43.39" fill="white" transform="scale(1.01406)"/>
</clipPath>
<clipPath id="clip1_1_4943">
<rect width="44.0027" height="44.0027" fill="white" transform="scale(1.01406)"/>
</clipPath>
</defs>
</svg>
