<svg width="15" height="15" viewBox="0 0 15 15" fill="none" xmlns="http://www.w3.org/2000/svg">
<path d="M10.6313 1.97979C10.3428 1.89181 9.46469 1.57881 9.45562 1.57574C9.2125 1.48929 8.94375 1.61529 8.85437 1.85226C8.84094 1.88782 8.51406 2.7223 7.5 2.7223C6.48594 2.7223 6.15906 1.88782 6.14719 1.85625C6.10562 1.74006 6.01875 1.64533 5.90563 1.5926C5.79313 1.54018 5.6625 1.53435 5.545 1.57574C5.53625 1.57911 4.6575 1.89181 4.36875 1.97979C2.50656 2.54817 1.5625 3.94979 1.5625 6.14665V7.49554C1.5625 8.25613 2.19344 8.87509 2.96875 8.87509H3.4375V7.05102C3.4375 6.88149 3.57719 6.74445 3.75 6.74445C3.92281 6.74445 4.0625 6.88149 4.0625 7.05102V8.87509V10.4232V11.7875C4.0625 12.5481 4.69344 13.167 5.46875 13.167H9.53125C10.3066 13.167 10.9375 12.5481 10.9375 11.7875V10.4232V8.87509V7.05102C10.9375 6.88149 11.0772 6.74445 11.25 6.74445C11.4228 6.74445 11.5625 6.88149 11.5625 7.05102V8.87509H12.0312C12.8066 8.87509 13.4375 8.25613 13.4375 7.49554V6.14665C13.4375 3.94979 12.4934 2.54817 10.6313 1.97979ZM9.55031 8.1427C8.90438 8.77637 8.0875 9.11758 7.33875 9.11758C6.93375 9.11758 6.54875 9.01795 6.22062 8.81071C5.53781 8.37937 5.2875 7.58689 5.50219 6.63746C5.26656 6.24291 5.08406 5.74596 5.00375 5.11566C4.97156 4.86367 5.15375 4.63374 5.41062 4.60216C5.55 4.58592 5.68094 4.63129 5.77812 4.71529C5.80312 5.65215 6.22656 7.10252 7.76156 7.3536C7.77906 7.35666 7.79594 7.35789 7.81313 7.35789C7.96313 7.35789 8.09562 7.25151 8.12094 7.1016C8.14937 6.93483 8.03438 6.77664 7.86406 6.74905C7.02844 6.61232 6.67 5.99796 6.51594 5.44032C6.53594 5.43419 6.55312 5.4253 6.57375 5.42008C7.13094 5.27508 7.8575 5.35264 8.22906 5.59575C8.93313 6.05621 9.07688 6.42562 9.22906 6.8168C9.31313 7.0317 9.39937 7.25427 9.60906 7.56268C9.73281 7.74478 9.70813 7.98758 9.55031 8.1427Z" fill="#FCFAF7"/>
</svg>
