<svg width="15" height="15" viewBox="0 0 15 15" fill="none" xmlns="http://www.w3.org/2000/svg">
<g clip-path="url(#clip0_1_2127)">
<path d="M7.03121 -0.0180054C6.04188 -0.0180054 5.24861 0.757235 5.19227 1.73079H2.88458C2.53752 1.73079 2.30765 1.96066 2.30765 2.30772H2.07328C1.55495 2.30772 1.15381 2.70886 1.15381 3.22719V3.46156H13.8461V3.22719C13.8461 2.70886 13.445 2.30772 12.9266 2.30772H12.6923C12.6923 1.96066 12.4624 1.73079 12.1153 1.73079H9.80765C9.75132 0.757235 8.95805 -0.0180054 7.96871 -0.0180054H7.03121ZM7.03121 1.1719H7.96871C8.28872 1.1719 8.56141 1.42205 8.61775 1.73079H6.38217C6.43851 1.42205 6.7112 1.1719 7.03121 1.1719ZM1.78482 4.03849L3.4615 15H11.5384L13.2151 4.03849H1.78482ZM3.40741 5.76925H4.03842L5.01198 13.2693H4.43506L3.40741 5.76925ZM5.87737 5.76925H6.5264L6.92304 13.2693H6.23794L5.87737 5.76925ZM8.47352 5.76925H9.12256L8.76198 13.2693H8.13097L8.47352 5.76925ZM10.9615 5.76925H11.5384L10.5649 13.2693H9.98794L10.9615 5.76925Z" fill="#3AB190"/>
</g>
<defs>
<clipPath id="clip0_1_2127">
<rect width="15" height="15" fill="white"/>
</clipPath>
</defs>
</svg>
