<svg width="20" height="20" viewBox="0 0 20 20" fill="none" xmlns="http://www.w3.org/2000/svg">
<path d="M18.3334 10C18.3334 14.6017 14.6017 18.3333 10.0001 18.3333C5.39841 18.3333 1.66675 14.6017 1.66675 10C1.66675 5.39834 5.39841 1.66667 10.0001 1.66667C14.6017 1.66667 18.3334 5.39834 18.3334 10Z" fill="#147377"/>
<path d="M11.775 6V10.7279H12.6746V11.9621H11.775V13.5H10.2687V11.9625H7V10.6708C7.28917 10.3467 7.58917 9.99167 7.89958 9.60667C8.20958 9.22125 8.50958 8.82458 8.79917 8.41667C9.08833 8.00875 9.35792 7.59833 9.60708 7.185C9.85583 6.77208 10.0683 6.37708 10.2425 6.00042H11.775V6ZM8.48 10.7279H10.2687V8.1075C10.1467 8.33417 10.0142 8.56333 9.87125 8.795C9.72833 9.02708 9.57833 9.25542 9.42167 9.48042C9.26458 9.705 9.10625 9.92292 8.94583 10.1342C8.785 10.3454 8.63 10.5433 8.48 10.7279Z" fill="#FCFAF7"/>
</svg>
