<svg width="24" height="24" viewBox="0 0 24 24" fill="none" xmlns="http://www.w3.org/2000/svg">
<g clip-path="url(#clip0_0_48)">
<g clip-path="url(#clip1_0_48)">
<path d="M0.52459 0.5V2.5H23.0656V0.5H0.52459ZM0.52459 3.5C0.52459 3.5 -0.5 9.826 -0.5 10C-0.5 10.828 0.188525 11.5 1.03689 11.5C1.88525 11.5 2.57377 10.828 2.57377 10V5.5H4.8791V10C4.8791 10.828 5.56762 11.5 6.41598 11.5C7.26434 11.5 7.95287 10.828 7.95287 10V5.5H10.2582V10C10.2582 10.828 10.9467 11.5 11.7951 11.5C12.6434 11.5 13.332 10.828 13.332 10V5.5H15.6373V10C15.6373 10.828 16.3258 11.5 17.1742 11.5C18.0225 11.5 18.7111 10.828 18.7111 10L18.7211 5.5H21.0164V10C21.0164 10.828 21.7049 11.5 22.5533 11.5C23.4016 11.5 24.0902 10.828 24.0902 10C24.0902 9.826 23.0656 3.5 23.0656 3.5H0.52459ZM3.72643 11.002C3.20184 11.925 2.19262 12.5508 1.03689 12.5508C0.86168 12.5508 0.691598 12.528 0.52459 12.5V24.5H13.8443V14.5H19.9918V24.5H23.0656V12.502C22.8986 12.53 22.7285 12.5508 22.5533 12.5508C21.3975 12.5508 20.3893 11.9259 19.8637 11.0039C19.3391 11.9259 18.3299 12.5508 17.1742 12.5508C16.0184 12.5508 15.0092 11.925 14.4846 11.002C13.96 11.925 12.9508 12.5508 11.7951 12.5508C10.6393 12.5508 9.63012 11.925 9.10553 11.002C8.58094 11.925 7.57172 12.5508 6.41598 12.5508C5.26025 12.5508 4.25102 11.925 3.72643 11.002ZM3.59836 14.5H10.7705V20.5H3.59836V14.5Z" fill="#F1BC00"/>
</g>
</g>
<defs>
<clipPath id="clip0_0_48">
<rect width="24" height="24" fill="white"/>
</clipPath>
<clipPath id="clip1_0_48">
<rect width="24.5902" height="24" fill="white" transform="translate(-0.5 0.5)"/>
</clipPath>
</defs>
</svg>
