<svg width="15" height="15" viewBox="0 0 15 15" fill="none" xmlns="http://www.w3.org/2000/svg">
<path d="M7 1.47153C6.45 1.47153 6 1.91298 6 2.45254V2.94305H9V2.45254C9 1.91298 8.55 1.47153 8 1.47153H7ZM5.91406 3.92406C5.64906 3.92406 5.39453 4.02752 5.20703 4.21146L4.29395 5.10817C4.10595 5.29211 4 5.54132 4 5.80178V6.37659C4 6.67138 4.13473 6.93233 4.34473 7.11235C4.13473 7.29237 4 7.55332 4 7.84811V9.31963C4 9.61442 4.13473 9.87537 4.34473 10.0554C4.13473 10.2354 4 10.4964 4 10.7911V12.2627C4 12.8047 4.4475 13.2437 5 13.2437H10C10.5525 13.2437 11 12.8047 11 12.2627V11.2817C11 11.0109 10.776 10.7911 10.5 10.7911H6C5.724 10.7911 5.5 10.5714 5.5 10.3006C5.5 10.0299 5.724 9.81013 6 9.81013H10.5C10.776 9.81013 11 9.59039 11 9.31963V8.33862C11 8.06786 10.776 7.84811 10.5 7.84811H6C5.724 7.84811 5.5 7.62836 5.5 7.3576C5.5 7.08684 5.724 6.8671 6 6.8671H10.5C10.776 6.8671 11 6.64735 11 6.37659V5.80178C11 5.54181 10.8945 5.29211 10.707 5.10817L9.79297 4.21146C9.60547 4.02752 9.35094 3.92406 9.08594 3.92406H5.91406Z" fill="#FCFAF7"/>
</svg>
