<svg width="13" height="13" viewBox="0 0 13 13" fill="none" xmlns="http://www.w3.org/2000/svg">
<path d="M6.39248 1.08335C3.45514 1.08335 1.06539 3.51331 1.06539 6.50007C1.06539 9.48682 3.45514 11.9168 6.39248 11.9168C9.32981 11.9168 11.7196 9.48682 11.7196 6.50007C11.7196 3.51331 9.32981 1.08335 6.39248 1.08335ZM6.39248 1.89586C8.89797 1.89586 10.9205 3.95242 10.9205 6.50007C10.9205 9.04771 8.89797 11.1043 6.39248 11.1043C3.88698 11.1043 1.86445 9.04771 1.86445 6.50007C1.86445 3.95242 3.88698 1.89586 6.39248 1.89586ZM6.78785 4.46457C6.70833 4.46459 6.63063 4.48873 6.56469 4.5339C6.49875 4.57907 6.44756 4.64323 6.41767 4.71815C6.38778 4.79307 6.38056 4.87535 6.39692 4.95447C6.41329 5.03359 6.45249 5.10595 6.50953 5.16229L7.42564 6.09381H4.39482C4.34187 6.09305 4.28931 6.103 4.24018 6.12307C4.19105 6.14315 4.14634 6.17295 4.10863 6.21075C4.07093 6.24855 4.04099 6.29359 4.02055 6.34326C4.00012 6.39292 3.9896 6.44623 3.9896 6.50007C3.9896 6.5539 4.00012 6.60721 4.02055 6.65687C4.04099 6.70654 4.07093 6.75158 4.10863 6.78938C4.14634 6.82718 4.19105 6.85699 4.24018 6.87706C4.28931 6.89713 4.34187 6.90708 4.39482 6.90632H7.42564L6.50953 7.83784C6.47118 7.87528 6.44057 7.92012 6.41948 7.96973C6.39839 8.01935 6.38725 8.07274 6.38671 8.12679C6.38617 8.18084 6.39624 8.23445 6.41633 8.28449C6.43643 8.33453 6.46614 8.37999 6.50372 8.41821C6.54131 8.45643 6.58602 8.48664 6.63523 8.50707C6.68444 8.5275 6.73717 8.53774 6.79032 8.53719C6.84348 8.53664 6.89599 8.52531 6.94478 8.50387C6.99358 8.48243 7.03767 8.4513 7.07449 8.41231L8.67261 6.7873C8.74751 6.71111 8.78959 6.60779 8.78959 6.50007C8.78959 6.39234 8.74751 6.28902 8.67261 6.21283L7.07449 4.58782C7.03725 4.54882 6.99269 4.51782 6.94345 4.49665C6.89422 4.47548 6.8413 4.46457 6.78785 4.46457Z" fill="#147377"/>
</svg>
