<svg width="25" height="25" viewBox="0 0 25 25" fill="none" xmlns="http://www.w3.org/2000/svg">
<path d="M17.4972 3.36353C17.0225 3.21405 15.5772 2.68228 15.5623 2.67707C15.1622 2.5302 14.7199 2.74426 14.5728 3.14686C14.5507 3.20728 14.0127 4.62499 12.3437 4.62499C10.6748 4.62499 10.1368 3.20728 10.1172 3.15363C10.0488 2.95624 9.90585 2.7953 9.71966 2.70572C9.53451 2.61665 9.31952 2.60676 9.12614 2.67707C9.11174 2.6828 7.66547 3.21405 7.19024 3.36353C4.12541 4.32915 2.57166 6.7104 2.57166 10.4427V12.7344C2.57166 14.0266 3.61007 15.0781 4.88609 15.0781H5.65757V11.9792C5.65757 11.6911 5.88747 11.4583 6.17189 11.4583C6.45631 11.4583 6.68621 11.6911 6.68621 11.9792V15.0781V17.7083V20.026C6.68621 21.3182 7.72462 22.3698 9.00065 22.3698H15.6868C16.9628 22.3698 18.0012 21.3182 18.0012 20.026V17.7083V15.0781V11.9792C18.0012 11.6911 18.2311 11.4583 18.5156 11.4583C18.8 11.4583 19.0299 11.6911 19.0299 11.9792V15.0781H19.8013C21.0774 15.0781 22.1158 14.0266 22.1158 12.7344V10.4427C22.1158 6.7104 20.562 4.32915 17.4972 3.36353ZM15.7182 13.8338C14.6551 14.9104 13.3106 15.4901 12.0783 15.4901C11.4118 15.4901 10.7781 15.3208 10.2381 14.9687C9.11431 14.2359 8.70234 12.8896 9.05568 11.2765C8.66788 10.6062 8.36752 9.76197 8.23534 8.69113C8.18236 8.26301 8.48221 7.87238 8.90498 7.81874C9.13437 7.79113 9.34987 7.86822 9.50982 8.01093C9.55097 9.60259 10.2479 12.0667 12.7742 12.4932C12.803 12.4984 12.8308 12.5005 12.8591 12.5005C13.1059 12.5005 13.324 12.3198 13.3657 12.0651C13.4125 11.7818 13.2232 11.513 12.9429 11.4661C11.5676 11.2338 10.9777 10.1901 10.7241 9.2427C10.757 9.23228 10.7853 9.21718 10.8193 9.20832C11.7363 8.96197 12.9321 9.09374 13.5436 9.50676C14.7024 10.2891 14.939 10.9167 15.1894 11.5812C15.3278 11.9463 15.4698 12.3245 15.8149 12.8484C16.0185 13.1578 15.9779 13.5703 15.7182 13.8338Z" fill="black"/>
</svg>
