<svg width="44" height="44" viewBox="0 0 44 44" fill="none" xmlns="http://www.w3.org/2000/svg">
<g clip-path="url(#clip0_1_4960)">
<g clip-path="url(#clip1_1_4960)">
<path d="M2.78866 8.36648V27.4525L0.653592 30.7207V30.7643C0.266883 31.3525 0 32.0552 0 32.7687C0 34.697 1.55773 36.2548 3.48583 36.2548H41.8299C42.5597 36.2548 43.3059 35.9988 43.8343 35.4704C44.3626 34.9421 44.6186 34.1958 44.6186 33.4659V19.5218C44.6186 18.7919 44.3626 18.0457 43.8343 17.5173C43.3059 16.989 42.5597 16.733 41.8299 16.733H33.4639V8.36648H2.78866ZM5.57732 11.1553H30.6753V16.733H22.3093C21.5794 16.733 20.8333 16.989 20.3049 17.5173C19.7766 18.0457 19.5206 18.7919 19.5206 19.5218V26.4939H5.57732V11.1553ZM22.3093 19.5218H41.8299V33.4659H22.3093V19.5218ZM4.9673 29.2827H19.5206V33.4659H3.48583C3.18626 33.4659 2.78866 33.0683 2.78866 32.7687C2.78866 32.6598 2.805 32.5291 2.96295 32.2894L4.9673 29.2827ZM29.2809 29.2827V32.0715H34.8583V29.2827H29.2809Z" fill="black"/>
</g>
</g>
<defs>
<clipPath id="clip0_1_4960">
<rect width="43.3874" height="43.39" fill="white" transform="scale(1.01406)"/>
</clipPath>
<clipPath id="clip1_1_4960">
<rect width="44" height="44.0027" fill="white" transform="scale(1.01406)"/>
</clipPath>
</defs>
</svg>
