<svg width="31" height="31" viewBox="0 0 31 31" fill="none" xmlns="http://www.w3.org/2000/svg">
<path d="M15.2436 6.92182L16.4097 9.8736L19.5308 10.0896L17.13 12.1288L17.8931 15.2143L15.2436 13.5229L12.5941 15.2143L13.3572 12.1288L10.9564 10.0896L14.0784 9.8736L15.2436 6.92182ZM23.8181 6.92182L24.9842 9.8736L28.1053 10.0896L25.7044 12.1288L26.4676 15.2143L23.8181 13.5229L21.1686 15.2143L21.9317 12.1288L19.5308 10.0896L22.6529 9.8736L23.8181 6.92182ZM6.66912 6.92182L7.83525 9.8736L10.9564 10.0896L8.5555 12.1288L9.31863 15.2143L6.66912 13.5229L4.01961 15.2143L4.78273 12.1288L2.38188 10.0896L5.50394 9.8736L6.66912 6.92182ZM10.9564 16.6093L12.1225 19.5611L15.2436 19.7771L12.8427 21.8163L13.6059 24.9008L10.9564 23.2103L8.30684 24.9018L9.06997 21.8163L6.66912 19.7771L9.79118 19.5611L10.9564 16.6093ZM19.5308 16.6093L20.697 19.5611L23.8181 19.7771L21.4172 21.8163L22.1803 24.9008L19.5308 23.2103L16.8813 24.9018L17.6444 21.8173L15.2436 19.7771L18.3657 19.5611L19.5308 16.6093Z" fill="#F1BC00"/>
</svg>
