<svg width="24" height="24" viewBox="0 0 24 24" fill="none" xmlns="http://www.w3.org/2000/svg">
<path d="M13.6191 1.75195C13.3193 1.70001 13 1.91898 13 2.27148V3.99999H10C9.44801 3.99999 9.00001 4.44799 9.00001 4.99999C9.00001 5.55199 9.44801 5.99999 10 5.99999H13V7.72851C13 8.19751 13.5684 8.4316 13.9004 8.0996L16.4238 5.57617C16.7418 5.25717 16.7418 4.74182 16.4238 4.42382L13.9004 1.89843C13.8174 1.81543 13.7191 1.76926 13.6191 1.75195ZM4.07423 2.0039L3.00391 2.00781C2.45191 2.01081 2.00582 2.46167 2.00782 3.01367C2.01082 3.56567 2.46168 4.01081 3.01368 4.00781L4.08399 4.0039L7.51173 11.9082L6.31446 13.8242C5.91446 14.4642 5.89377 15.2726 6.25977 15.9316C6.62577 16.5906 7.32218 17 8.07618 17H19C19.552 17 20 16.552 20 16C20 15.448 19.552 15 19 15H8.07618L8.01173 14.8828L9.18751 13H16.5215C17.2475 13 17.9166 12.6067 18.2676 11.9727L21.8965 5.4414C22.1645 4.9594 21.9898 4.35003 21.5078 4.08203C21.0248 3.81303 20.4164 3.9877 20.1484 4.4707L16.5215 11H9.28516L5.92969 3.23437C5.61869 2.48637 4.88523 1.9999 4.07423 2.0039ZM8.00001 18C7.46957 18 6.96087 18.2107 6.58579 18.5858C6.21072 18.9609 6.00001 19.4696 6.00001 20C6.00001 20.5304 6.21072 21.0391 6.58579 21.4142C6.96087 21.7893 7.46957 22 8.00001 22C8.53044 22 9.03915 21.7893 9.41422 21.4142C9.78929 21.0391 10 20.5304 10 20C10 19.4696 9.78929 18.9609 9.41422 18.5858C9.03915 18.2107 8.53044 18 8.00001 18ZM18 18C17.4696 18 16.9609 18.2107 16.5858 18.5858C16.2107 18.9609 16 19.4696 16 20C16 20.5304 16.2107 21.0391 16.5858 21.4142C16.9609 21.7893 17.4696 22 18 22C18.5304 22 19.0391 21.7893 19.4142 21.4142C19.7893 21.0391 20 20.5304 20 20C20 19.4696 19.7893 18.9609 19.4142 18.5858C19.0391 18.2107 18.5304 18 18 18Z" fill="#FCFAF7"/>
</svg>
