<svg width="15" height="15" viewBox="0 0 15 15" fill="none" xmlns="http://www.w3.org/2000/svg">
<g clip-path="url(#clip0_1_2125)">
<path d="M7.39183 0C3.31055 0 0 2.92293 0 6.52644C0 8.35412 0.854117 10.0038 2.22431 11.1892C1.92458 12.9267 -0.0157754 13.6298 0.117188 14.1076C1.75556 14.7859 5.03906 13.294 5.83909 12.9064C6.34165 13.0011 6.85998 13.0529 7.39183 13.0529C11.4731 13.0529 14.7837 10.1322 14.7837 6.52644C14.7837 2.92067 11.4731 0 7.39183 0ZM10.6235 9.98122C10.806 7.50902 9.60036 6.83068 6.84871 6.83068V7.9372C6.84871 8.02509 6.80138 8.10171 6.72025 8.13552C6.69096 8.14678 6.66391 8.15129 6.63687 8.15129C6.58053 8.15129 6.52644 8.13101 6.48362 8.08819L3.91001 6.07572C3.82662 5.99234 3.82662 5.85487 3.91001 5.77148L6.48588 3.75C6.54672 3.68915 6.63912 3.66887 6.72025 3.70267C6.80138 3.73648 6.84871 3.81535 6.84871 3.90099V5.07737C9.55078 5.07737 11.7886 6.02614 10.6235 9.98122Z" fill="#3AB190"/>
</g>
<defs>
<clipPath id="clip0_1_2125">
<rect width="15" height="15" fill="white"/>
</clipPath>
</defs>
</svg>
