<svg width="21" height="21" viewBox="0 0 21 21" fill="none" xmlns="http://www.w3.org/2000/svg">
<g clip-path="url(#clip0_1_1456)">
<path d="M7.17357 1.70792C6.9417 1.70792 6.71855 1.79756 6.55492 1.95812L5.93627 2.56192H2.43627C1.95327 2.56192 1.56127 2.94451 1.56127 3.41592C1.56127 3.88733 1.95327 4.26992 2.43627 4.26992V16.2259C2.43627 17.641 3.61139 18.7879 5.06127 18.7879H7.71874C7.71787 18.7623 7.71191 18.7377 7.71191 18.7112C7.71191 17.6087 8.43203 16.6554 9.46191 16.301C9.42516 16.0123 9.41765 15.7087 9.44653 15.3953C9.50165 14.8 9.71627 14.0277 10.3113 13.2753V6.83192C10.3113 6.36051 10.7033 5.97792 11.1863 5.97792C11.6693 5.97792 12.0613 6.36051 12.0613 6.83192V11.9009C12.1173 11.8753 12.1804 11.8581 12.2373 11.8342C12.3983 11.7633 12.5691 11.703 12.7397 11.6423C12.8071 11.6193 12.8663 11.5886 12.9346 11.5673V11.579C13.2408 11.479 13.5607 11.392 13.8967 11.3254C13.9352 11.3169 13.9684 11.3039 14.0078 11.2954C14.4068 11.2143 14.6863 10.8619 14.6863 10.4648V4.26992C15.1693 4.26992 15.5613 3.88733 15.5613 3.41592C15.5613 2.94451 15.1693 2.56192 14.6863 2.56192H11.1863L10.5676 1.95812C10.4031 1.79756 10.1808 1.70792 9.94897 1.70792H7.17357ZM5.93627 5.97792C6.41927 5.97792 6.81127 6.36051 6.81127 6.83192V14.5179C6.81127 14.9893 6.41927 15.3719 5.93627 15.3719C5.45327 15.3719 5.06127 14.9893 5.06127 14.5179V6.83192C5.06127 6.36051 5.45327 5.97792 5.93627 5.97792ZM16.4893 12.8149C15.1822 12.7769 13.5738 12.9289 12.3672 13.6889C10.4929 15.0041 11.2594 16.9107 11.8203 17.4786C11.3373 17.6682 10.8196 17.8032 10.2412 17.8672C9.79845 17.9167 9.4602 18.2765 9.4602 18.7112C9.4602 19.2219 9.92224 19.6224 10.4429 19.5669C13.2429 19.2697 14.967 17.7092 16.4055 16.0892C14.9023 18.646 13.0474 19.9505 13.0474 19.9505C13.2329 20.1333 13.4167 20.1945 13.6643 20.3158C15.8308 21.227 20.163 18.6738 18.8015 13.0818C18.8015 13.0818 17.7963 12.8529 16.4893 12.8149Z" fill="#FCFAF7"/>
</g>
<defs>
<clipPath id="clip0_1_1456">
<rect width="20.9082" height="20.4064" fill="white" transform="scale(1.00439)"/>
</clipPath>
</defs>
</svg>
