<svg width="20" height="20" viewBox="0 0 20 20" fill="none" xmlns="http://www.w3.org/2000/svg">
<g clip-path="url(#clip0_1_3002)">
<g clip-path="url(#clip1_1_3002)">
<path d="M0.437077 0.416748V2.08341H19.2212V0.416748H0.437077ZM0.437077 2.91675C0.437077 2.91675 -0.416748 8.18841 -0.416748 8.33341C-0.416748 9.02341 0.157022 9.58341 0.86399 9.58341C1.57096 9.58341 2.14473 9.02341 2.14473 8.33341V4.58341H4.06583V8.33341C4.06583 9.02341 4.6396 9.58341 5.34657 9.58341C6.05354 9.58341 6.62731 9.02341 6.62731 8.33341V4.58341H8.54842V8.33341C8.54842 9.02341 9.12219 9.58341 9.82915 9.58341C10.5361 9.58341 11.1099 9.02341 11.1099 8.33341V4.58341H13.031V8.33341C13.031 9.02341 13.6048 9.58341 14.3117 9.58341C15.0187 9.58341 15.5925 9.02341 15.5925 8.33341L15.6008 4.58341H17.5136V8.33341C17.5136 9.02341 18.0874 9.58341 18.7943 9.58341C19.5013 9.58341 20.0751 9.02341 20.0751 8.33341C20.0751 8.18841 19.2212 2.91675 19.2212 2.91675H0.437077ZM3.10528 9.16838C2.66812 9.93754 1.8271 10.4591 0.86399 10.4591C0.717986 10.4591 0.576251 10.4401 0.437077 10.4167V20.4167H11.5368V12.0834H16.6598V20.4167H19.2212V10.4184C19.0821 10.4417 18.9403 10.4591 18.7943 10.4591C17.8312 10.4591 16.991 9.93834 16.553 9.17C16.1159 9.93834 15.2749 10.4591 14.3117 10.4591C13.3486 10.4591 12.5076 9.93754 12.0704 9.16838C11.6333 9.93754 10.7923 10.4591 9.82915 10.4591C8.86604 10.4591 8.02502 9.93754 7.58786 9.16838C7.1507 9.93754 6.30969 10.4591 5.34657 10.4591C4.38346 10.4591 3.54244 9.93754 3.10528 9.16838ZM2.99855 12.0834H8.97533V17.0834H2.99855V12.0834Z" fill="#FCFAF7"/>
</g>
</g>
<defs>
<clipPath id="clip0_1_3002">
<rect width="20" height="20" fill="white"/>
</clipPath>
<clipPath id="clip1_1_3002">
<rect width="20.4918" height="20" fill="white" transform="translate(-0.416748 0.416748)"/>
</clipPath>
</defs>
</svg>
