<svg width="16" height="16" viewBox="0 0 16 16" fill="none" xmlns="http://www.w3.org/2000/svg">
<path d="M6.48604 1.60001C3.79339 1.60001 1.6001 3.7933 1.6001 6.48594C1.6001 9.17859 3.79339 11.3719 6.48604 11.3719C7.65695 11.3719 8.73229 10.9561 9.57506 10.2659L12.4923 13.1831C12.5373 13.23 12.5913 13.2674 12.6509 13.2932C12.7106 13.319 12.7748 13.3327 12.8398 13.3333C12.9048 13.334 12.9693 13.3217 13.0295 13.2971C13.0897 13.2725 13.1443 13.2362 13.1903 13.1902C13.2363 13.1443 13.2726 13.0896 13.2972 13.0294C13.3218 12.9692 13.3341 12.9047 13.3334 12.8397C13.3327 12.7747 13.3191 12.7105 13.2933 12.6508C13.2675 12.5912 13.2301 12.5372 13.1832 12.4922L10.266 9.57496C10.9562 8.7322 11.372 7.65686 11.372 6.48594C11.372 3.7933 9.17868 1.60001 6.48604 1.60001ZM6.48604 2.57719C8.65057 2.57719 10.3948 4.32141 10.3948 6.48594C10.3948 8.65048 8.65057 10.3947 6.48604 10.3947C4.32151 10.3947 2.57729 8.65048 2.57729 6.48594C2.57729 4.32141 4.32151 2.57719 6.48604 2.57719Z" fill="black"/>
</svg>
