<svg width="42" height="42" viewBox="0 0 42 42" fill="none" xmlns="http://www.w3.org/2000/svg">
<path d="M21.0005 17.5C20.0722 17.5 19.182 17.8687 18.5256 18.5251C17.8692 19.1815 17.5005 20.0717 17.5005 21C17.5005 21.9283 17.8692 22.8185 18.5256 23.4749C19.182 24.1313 20.0722 24.5 21.0005 24.5C21.9287 24.5 22.819 24.1313 23.4754 23.4749C24.1317 22.8185 24.5005 21.9283 24.5005 21C24.5005 20.0717 24.1317 19.1815 23.4754 18.5251C22.819 17.8687 21.9287 17.5 21.0005 17.5Z" fill="black"/>
<path d="M20.9998 18.2004C22.544 18.2004 23.7998 19.4562 23.7998 21.0004C23.7998 22.5446 22.544 23.8004 20.9998 23.8004C19.4556 23.8004 18.1998 22.5446 18.1998 21.0004C18.1998 19.4562 19.4556 18.2004 20.9998 18.2004ZM20.9998 16.8004C18.68 16.8004 16.7998 18.6806 16.7998 21.0004C16.7998 23.3202 18.68 25.2004 20.9998 25.2004C23.3196 25.2004 25.1998 23.3202 25.1998 21.0004C25.1998 18.6806 23.3196 16.8004 20.9998 16.8004Z" fill="black"/>
<path d="M36.4 17.5C35.4718 17.5 34.5815 17.8687 33.9252 18.5251C33.2688 19.1815 32.9 20.0717 32.9 21C32.9 21.9283 33.2688 22.8185 33.9252 23.4749C34.5815 24.1313 35.4718 24.5 36.4 24.5C37.3283 24.5 38.2185 24.1313 38.8749 23.4749C39.5313 22.8185 39.9 21.9283 39.9 21C39.9 20.0717 39.5313 19.1815 38.8749 18.5251C38.2185 17.8687 37.3283 17.5 36.4 17.5Z" fill="black"/>
<path d="M36.4003 18.2004C37.9445 18.2004 39.2003 19.4562 39.2003 21.0004C39.2003 22.5446 37.9445 23.8004 36.4003 23.8004C34.8561 23.8004 33.6003 22.5446 33.6003 21.0004C33.6003 19.4562 34.8561 18.2004 36.4003 18.2004ZM36.4003 16.8004C34.0805 16.8004 32.2003 18.6806 32.2003 21.0004C32.2003 23.3202 34.0805 25.2004 36.4003 25.2004C38.7201 25.2004 40.6003 23.3202 40.6003 21.0004C40.6003 18.6806 38.7201 16.8004 36.4003 16.8004Z" fill="black"/>
<path d="M5.60059 17.5C4.67233 17.5 3.78209 17.8687 3.12571 18.5251C2.46933 19.1815 2.10059 20.0717 2.10059 21C2.10059 21.9283 2.46933 22.8185 3.12571 23.4749C3.78209 24.1313 4.67233 24.5 5.60059 24.5C6.52884 24.5 7.41908 24.1313 8.07546 23.4749C8.73184 22.8185 9.10059 21.9283 9.10059 21C9.10059 20.0717 8.73184 19.1815 8.07546 18.5251C7.41908 17.8687 6.52884 17.5 5.60059 17.5Z" fill="#147377"/>
<path d="M5.5999 18.2004C7.1441 18.2004 8.3999 19.4562 8.3999 21.0004C8.3999 22.5446 7.1441 23.8004 5.5999 23.8004C4.0557 23.8004 2.7999 22.5446 2.7999 21.0004C2.7999 19.4562 4.0557 18.2004 5.5999 18.2004ZM5.5999 16.8004C3.2801 16.8004 1.3999 18.6806 1.3999 21.0004C1.3999 23.3202 3.2801 25.2004 5.5999 25.2004C7.9197 25.2004 9.7999 23.3202 9.7999 21.0004C9.7999 18.6806 7.9197 16.8004 5.5999 16.8004Z" fill="#147377"/>
</svg>
