<svg width="26" height="26" viewBox="0 0 26 26" fill="none" xmlns="http://www.w3.org/2000/svg">
<path d="M9.75 22.75C9.75 24.5443 11.2057 26 13 26C14.7943 26 16.25 24.5443 16.25 22.75C16.25 20.9557 14.7943 19.5 13 19.5C11.2057 19.5 9.75 20.9557 9.75 22.75ZM9.75 13C9.75 14.7943 11.2057 16.25 13 16.25C14.7943 16.25 16.25 14.7943 16.25 13C16.25 11.2057 14.7943 9.75 13 9.75C11.2057 9.75 9.75 11.2057 9.75 13ZM9.75 3.25C9.75 5.04427 11.2057 6.5 13 6.5C14.7943 6.5 16.25 5.04427 16.25 3.25C16.25 1.45573 14.7943 0 13 0C11.2057 0 9.75 1.45573 9.75 3.25Z" fill="black"/>
</svg>
