<svg width="28" height="28" viewBox="0 0 28 28" fill="none" xmlns="http://www.w3.org/2000/svg">
<path d="M12.1334 2.8C6.46337 2.8 1.8667 6.97854 1.8667 12.1333C1.8667 14.7808 3.08762 17.1619 5.03675 18.8581C4.75718 19.7736 4.17399 20.6843 3.10264 21.4958C3.10203 21.4964 3.10142 21.4971 3.10081 21.4977C3.01245 21.5313 2.93637 21.5909 2.88266 21.6687C2.82895 21.7465 2.80014 21.8388 2.80003 21.9333C2.80003 22.0571 2.8492 22.1758 2.93672 22.2633C3.02423 22.3508 3.14293 22.4 3.2667 22.4C3.29859 22.3996 3.33035 22.3959 3.36149 22.3891C5.17222 22.3838 6.71718 21.6103 7.94613 20.6409C8.52932 20.8781 9.13808 21.0737 9.77269 21.2096C9.48896 20.407 9.33337 19.5524 9.33337 18.6667C9.33337 14.0345 13.5203 10.2667 18.6667 10.2667C19.9566 10.2667 21.1862 10.5036 22.3052 10.932C21.6556 6.34563 17.3544 2.8 12.1334 2.8ZM18.6667 12.1333C16.6864 12.1333 14.7872 12.8217 13.387 14.0469C11.9867 15.2721 11.2 16.9339 11.2 18.6667C11.2 20.3994 11.9867 22.0612 13.387 23.2864C14.7872 24.5117 16.6864 25.2 18.6667 25.2C19.6214 25.1987 20.5669 25.0372 21.4521 24.7242C22.5967 25.5238 23.9819 26.1169 25.5683 26.1224C25.6006 26.1295 25.6336 26.1332 25.6667 26.1333C25.7905 26.1333 25.9092 26.0842 25.9967 25.9967C26.0842 25.9091 26.1334 25.7904 26.1334 25.6667C26.1332 25.5712 26.1038 25.478 26.049 25.3998C25.9942 25.3215 25.9168 25.262 25.8271 25.2292C24.9729 24.5807 24.4255 23.8668 24.0972 23.1401C25.4021 21.9302 26.1303 20.3303 26.1334 18.6667C26.1334 16.9339 25.3467 15.2721 23.9464 14.0469C22.5462 12.8217 20.647 12.1333 18.6667 12.1333Z" fill="black"/>
</svg>
