<svg width="64" height="55" viewBox="0 0 64 55" fill="none" xmlns="http://www.w3.org/2000/svg">
<path d="M35.2 0C26.7209 0 19.8 6.92087 19.8 15.4C19.8 23.8791 26.7209 30.8 35.2 30.8C43.6791 30.8 50.6 23.8791 50.6 15.4C50.6 6.92087 43.6791 0 35.2 0ZM35.2 4.4C41.3012 4.4 46.2 9.29881 46.2 15.4C46.2 21.5012 41.3012 26.4 35.2 26.4C29.0988 26.4 24.2 21.5012 24.2 15.4C24.2 9.29881 29.0988 4.4 35.2 4.4ZM53.8871 8.91172C54.4019 10.3967 54.7581 11.9567 54.9055 13.5781C57.5081 14.4625 59.4 16.9026 59.4 19.8C59.4 23.4388 56.4388 26.4 52.8 26.4C52.4326 26.4 52.0778 26.3498 51.7258 26.2926C50.8348 27.6412 49.7749 28.8623 48.5891 29.9535C49.8893 30.4947 51.3084 30.8 52.8 30.8C58.8654 30.8 63.8 25.8654 63.8 19.8C63.8 14.1086 59.4355 9.46832 53.8871 8.91172ZM0 19.8V55H61.6V32.4285C60.2712 33.3569 58.7906 34.0782 57.2 34.5512V46.3934C56.847 46.2669 56.475 46.2015 56.1 46.2C55.2248 46.2 54.3854 46.5477 53.7665 47.1665C53.1477 47.7854 52.8 48.6248 52.8 49.5C52.8015 49.875 52.8669 50.247 52.9934 50.6H8.60664C8.73312 50.247 8.79851 49.875 8.8 49.5C8.8 48.6248 8.45232 47.7854 7.83345 47.1665C7.21458 46.5477 6.37521 46.2 5.5 46.2C5.12501 46.2015 4.75302 46.2669 4.4 46.3934V28.4066C4.75302 28.5331 5.12501 28.5985 5.5 28.6C6.37521 28.6 7.21458 28.2523 7.83345 27.6335C8.45232 27.0146 8.8 26.1752 8.8 25.3C8.79851 24.925 8.73312 24.553 8.60664 24.2H17.484C16.7954 22.8162 16.259 21.3444 15.907 19.8H0ZM24.0496 31.7582C22.7846 33.2806 22 35.222 22 37.4C22 42.3346 25.8654 46.2 30.8 46.2C35.7346 46.2 39.6 42.3346 39.6 37.4C39.6 36.4848 39.4275 35.6254 39.1789 34.8004C37.8919 35.0622 36.564 35.2 35.2 35.2C34.9998 35.2 34.8093 35.1765 34.6113 35.1699C34.9787 35.8189 35.2 36.5706 35.2 37.4C35.2 39.908 33.3102 41.8 30.8 41.8C28.2898 41.8 26.4 39.908 26.4 37.4C26.4 35.9194 27.0713 34.6664 28.1273 33.8766C26.6819 33.3222 25.3102 32.6206 24.0496 31.7582ZM15.4 34.1C14.5248 34.1 13.6854 34.4477 13.0665 35.0665C12.4477 35.6854 12.1 36.5248 12.1 37.4C12.1 38.2752 12.4477 39.1146 13.0665 39.7335C13.6854 40.3523 14.5248 40.7 15.4 40.7C16.2752 40.7 17.1146 40.3523 17.7335 39.7335C18.3523 39.1146 18.7 38.2752 18.7 37.4C18.7 36.5248 18.3523 35.6854 17.7335 35.0665C17.1146 34.4477 16.2752 34.1 15.4 34.1ZM46.2 34.1C45.3248 34.1 44.4854 34.4477 43.8665 35.0665C43.2477 35.6854 42.9 36.5248 42.9 37.4C42.9 38.2752 43.2477 39.1146 43.8665 39.7335C44.4854 40.3523 45.3248 40.7 46.2 40.7C47.0752 40.7 47.9146 40.3523 48.5335 39.7335C49.1523 39.1146 49.5 38.2752 49.5 37.4C49.5 36.5248 49.1523 35.6854 48.5335 35.0665C47.9146 34.4477 47.0752 34.1 46.2 34.1Z" fill="black"/>
</svg>
