<svg width="76" height="76" viewBox="0 0 76 76" fill="none" xmlns="http://www.w3.org/2000/svg">
<path d="M32.68 44.84L24.415 36.575C23.7183 35.8783 22.8633 35.53 21.85 35.53C20.8367 35.53 19.95 35.91 19.19 36.67C18.4933 37.3666 18.145 38.2533 18.145 39.33C18.145 40.4066 18.4933 41.2933 19.19 41.99L30.02 52.82C30.7166 53.5166 31.6033 53.865 32.68 53.865C33.7566 53.865 34.6433 53.5166 35.34 52.82L56.905 31.255C57.6016 30.5583 57.95 29.7033 57.95 28.69C57.95 27.6767 57.57 26.79 56.81 26.03C56.1133 25.3333 55.2266 24.985 54.15 24.985C53.0733 24.985 52.1866 25.3333 51.49 26.03L32.68 44.84ZM38 76C32.7433 76 27.8033 75.0018 23.18 73.0056C18.5567 71.0118 14.535 68.305 11.115 64.885C7.695 61.465 4.98813 57.4433 2.9944 52.82C0.998133 48.1966 0 43.2566 0 38C0 32.7433 0.998133 27.8033 2.9944 23.18C4.98813 18.5567 7.695 14.535 11.115 11.115C14.535 7.695 18.5567 4.98686 23.18 2.9906C27.8033 0.996866 32.7433 0 38 0C43.2566 0 48.1966 0.996866 52.82 2.9906C57.4433 4.98686 61.465 7.695 64.885 11.115C68.305 14.535 71.0118 18.5567 73.0056 23.18C75.0018 27.8033 76 32.7433 76 38C76 43.2566 75.0018 48.1966 73.0056 52.82C71.0118 57.4433 68.305 61.465 64.885 64.885C61.465 68.305 57.4433 71.0118 52.82 73.0056C48.1966 75.0018 43.2566 76 38 76Z" fill="#147377"/>
</svg>
