<svg width="21" height="21" viewBox="0 0 21 21" fill="none" xmlns="http://www.w3.org/2000/svg">
<path d="M3.86401 1.74658L0.878418 1.76196L0.886963 3.51196L2.69849 3.50342L5.58154 10.4197L4.53394 12.0945C3.80037 13.2659 4.69234 14.875 6.07373 14.875H16.625V13.125H6.07373C5.97637 13.125 5.96514 13.1058 6.01733 13.0225L7.04614 11.375H13.5813C14.2165 11.375 14.8028 11.03 15.1108 10.4744L18.2622 4.79883C18.5868 4.21608 18.165 3.5 17.4983 3.5H4.59375L3.86401 1.74658ZM6.125 15.75C5.66087 15.75 5.21575 15.9344 4.88756 16.2626C4.55937 16.5908 4.375 17.0359 4.375 17.5C4.375 17.9641 4.55937 18.4092 4.88756 18.7374C5.21575 19.0656 5.66087 19.25 6.125 19.25C6.58913 19.25 7.03425 19.0656 7.36244 18.7374C7.69063 18.4092 7.875 17.9641 7.875 17.5C7.875 17.0359 7.69063 16.5908 7.36244 16.2626C7.03425 15.9344 6.58913 15.75 6.125 15.75ZM14.875 15.75C14.4109 15.75 13.9658 15.9344 13.6376 16.2626C13.3094 16.5908 13.125 17.0359 13.125 17.5C13.125 17.9641 13.3094 18.4092 13.6376 18.7374C13.9658 19.0656 14.4109 19.25 14.875 19.25C15.3391 19.25 15.7842 19.0656 16.1124 18.7374C16.4406 18.4092 16.625 17.9641 16.625 17.5C16.625 17.0359 16.4406 16.5908 16.1124 16.2626C15.7842 15.9344 15.3391 15.75 14.875 15.75Z" fill="#FCFAF7"/>
</svg>
