<svg width="33" height="33" viewBox="0 0 33 33" fill="none" xmlns="http://www.w3.org/2000/svg">
<g clip-path="url(#clip0_1_3977)">
<path fill-rule="evenodd" clip-rule="evenodd" d="M23.375 2.75C24.469 2.75 25.5182 3.1846 26.2918 3.95818C27.0654 4.73177 27.5 5.78098 27.5 6.875V28.875C27.4998 29.134 27.4265 29.3876 27.2885 29.6068C27.1506 29.8259 26.9535 30.0017 26.72 30.1137C26.4865 30.2258 26.2262 30.2697 25.9689 30.2402C25.7116 30.2108 25.4678 30.1094 25.2656 29.9475L22.6875 27.885L20.1094 29.9475C19.8452 30.1591 19.5124 30.2659 19.1744 30.2473C18.8365 30.2288 18.5173 30.0863 18.2779 29.8471L16.5 28.0693L14.7221 29.8471C14.4829 30.0865 14.1637 30.2293 13.8258 30.248C13.4879 30.2668 13.1549 30.1603 12.8906 29.9489L10.3125 27.885L7.73438 29.9475C7.53221 30.1094 7.28845 30.2108 7.03115 30.2402C6.77384 30.2697 6.51347 30.2258 6.27999 30.1137C6.04652 30.0017 5.84944 29.8259 5.71145 29.6068C5.57346 29.3876 5.50016 29.134 5.5 28.875V6.875C5.5 5.78098 5.9346 4.73177 6.70818 3.95818C7.48177 3.1846 8.53098 2.75 9.625 2.75H23.375ZM16.5 16.5H12.375C12.0103 16.5 11.6606 16.6449 11.4027 16.9027C11.1449 17.1606 11 17.5103 11 17.875C11 18.2397 11.1449 18.5894 11.4027 18.8473C11.6606 19.1051 12.0103 19.25 12.375 19.25H16.5C16.8647 19.25 17.2144 19.1051 17.4723 18.8473C17.7301 18.5894 17.875 18.2397 17.875 17.875C17.875 17.5103 17.7301 17.1606 17.4723 16.9027C17.2144 16.6449 16.8647 16.5 16.5 16.5ZM20.625 11H12.375C12.0245 11.0004 11.6875 11.1346 11.4326 11.3752C11.1778 11.6157 11.0244 11.9446 11.0039 12.2944C10.9833 12.6443 11.0972 12.9888 11.3221 13.2575C11.547 13.5263 11.8661 13.699 12.2141 13.7404L12.375 13.75H20.625C20.9755 13.7496 21.3125 13.6154 21.5674 13.3748C21.8222 13.1343 21.9756 12.8054 21.9961 12.4556C22.0167 12.1057 21.9028 11.7612 21.6779 11.4925C21.4529 11.2237 21.1339 11.051 20.7859 11.0096L20.625 11Z" fill="#F1BC00"/>
</g>
<defs>
<clipPath id="clip0_1_3977">
<rect width="33" height="33" fill="white"/>
</clipPath>
</defs>
</svg>
