<svg width="25" height="24" viewBox="0 0 25 24" fill="none" xmlns="http://www.w3.org/2000/svg">
<g clip-path="url(#clip0_0_21)">
<path d="M8.39991 2C8.12839 2 7.86709 2.10497 7.67549 2.29297L6.95108 3H2.85272C2.28714 3 1.82812 3.448 1.82812 4C1.82812 4.552 2.28714 5 2.85272 5V19C2.85272 20.657 4.22874 22 5.92649 22H9.03828C9.03725 21.97 9.03027 21.9412 9.03027 21.9102C9.03027 20.6192 9.87351 19.5029 11.0795 19.0879C11.0364 18.7499 11.0276 18.3943 11.0614 18.0273C11.126 17.3303 11.3773 16.4259 12.074 15.5449V8C12.074 7.448 12.533 7 13.0986 7C13.6642 7 14.1232 7.448 14.1232 8V13.9355C14.1888 13.9055 14.2627 13.8854 14.3293 13.8574C14.5178 13.7744 14.7179 13.7038 14.9177 13.6328C14.9966 13.6058 15.0659 13.5699 15.1458 13.5449V13.5586C15.5044 13.4416 15.879 13.3397 16.2724 13.2617C16.3175 13.2517 16.3564 13.2366 16.4025 13.2266C16.8697 13.1316 17.197 12.7189 17.197 12.2539V5C17.7626 5 18.2216 4.552 18.2216 4C18.2216 3.448 17.7626 3 17.197 3H13.0986L12.3742 2.29297C12.1816 2.10497 11.9213 2 11.6498 2H8.39991ZM6.95108 7C7.51665 7 7.97567 7.448 7.97567 8V17C7.97567 17.552 7.51665 18 6.95108 18C6.3855 18 5.92649 17.552 5.92649 17V8C5.92649 7.448 6.3855 7 6.95108 7ZM19.3082 15.0059C17.7777 14.9614 15.8943 15.1393 14.4814 16.0293C12.2867 17.5693 13.1843 19.8018 13.841 20.4668C13.2755 20.6888 12.6692 20.8469 11.992 20.9219C11.4735 20.9799 11.0775 21.4012 11.0775 21.9102C11.0775 22.5082 11.6185 22.9771 12.2281 22.9121C15.5068 22.5641 17.5257 20.7368 19.2101 18.8398C17.4499 21.8338 15.2779 23.3613 15.2779 23.3613C15.4951 23.5753 15.7103 23.6471 16.0003 23.7891C18.5372 24.8561 23.61 21.8664 22.0158 15.3184C22.0158 15.3184 20.8387 15.0504 19.3082 15.0059Z" fill="black"/>
</g>
<defs>
<clipPath id="clip0_0_21">
<rect width="24.5902" height="24" fill="white"/>
</clipPath>
</defs>
</svg>
